<mxfile host="app.diagrams.net" modified="2023-12-19T14:20:28.788Z" agent="Mozilla/5.0 (Macintosh; Intel Mac OS X 10_15_7) AppleWebKit/605.1.15 (KHTML, like Gecko) Version/16.2 Safari/605.1.15" etag="53yvD2RJ0xiRqffjSUPI" version="22.1.11" type="github">
  <diagram name="Page-1" id="rJMeVGOWiZNi5ug0Oi-z">
    <mxGraphModel dx="1237" dy="694" grid="1" gridSize="10" guides="1" tooltips="1" connect="1" arrows="1" fold="1" page="1" pageScale="1" pageWidth="1100" pageHeight="850" math="0" shadow="0">
      <root>
        <mxCell id="0" />
        <mxCell id="1" parent="0" />
        <mxCell id="Y1Mvb5ua3xA_qWiBDqf6-18" value="&lt;b&gt;Google &lt;/b&gt;Cloud Platform" style="fillColor=#F6F6F6;strokeColor=none;shadow=0;gradientColor=none;fontSize=14;align=left;spacing=10;fontColor=#717171;9E9E9E;verticalAlign=top;spacingTop=-4;fontStyle=0;spacingLeft=40;html=1;whiteSpace=wrap;" vertex="1" parent="1">
          <mxGeometry x="20" y="150" width="1060" height="610" as="geometry" />
        </mxCell>
        <mxCell id="Y1Mvb5ua3xA_qWiBDqf6-19" value="" style="shape=mxgraph.gcp2.google_cloud_platform;fillColor=#F6F6F6;strokeColor=none;shadow=0;gradientColor=none;" vertex="1" parent="Y1Mvb5ua3xA_qWiBDqf6-18">
          <mxGeometry width="23" height="20" relative="1" as="geometry">
            <mxPoint x="20" y="10" as="offset" />
          </mxGeometry>
        </mxCell>
        <mxCell id="Y1Mvb5ua3xA_qWiBDqf6-1" value="AutoML Training" style="sketch=0;points=[[0,0,0],[0.25,0,0],[0.5,0,0],[0.75,0,0],[1,0,0],[1,0.25,0],[1,0.5,0],[1,0.75,0],[1,1,0],[0.75,1,0],[0.5,1,0],[0.25,1,0],[0,1,0],[0,0.75,0],[0,0.5,0],[0,0.25,0]];rounded=1;absoluteArcSize=1;arcSize=2;html=1;strokeColor=none;gradientColor=none;shadow=0;dashed=0;fontSize=12;fontColor=#9E9E9E;align=left;verticalAlign=top;spacing=10;spacingTop=-4;whiteSpace=wrap;fillColor=#E1F5FE;" vertex="1" parent="1">
          <mxGeometry x="40" y="230" width="1020" height="490" as="geometry" />
        </mxCell>
        <mxCell id="Y1Mvb5ua3xA_qWiBDqf6-2" value="External Data&#xa;Sources" style="sketch=0;points=[[0,0,0],[0.25,0,0],[0.5,0,0],[0.75,0,0],[1,0,0],[1,0.25,0],[1,0.5,0],[1,0.75,0],[1,1,0],[0.75,1,0],[0.5,1,0],[0.25,1,0],[0,1,0],[0,0.75,0],[0,0.5,0],[0,0.25,0]];rounded=1;absoluteArcSize=1;arcSize=2;html=1;strokeColor=none;gradientColor=none;shadow=0;dashed=0;fontSize=12;fontColor=#9E9E9E;align=left;verticalAlign=top;spacing=10;spacingTop=-4;whiteSpace=wrap;fillColor=#FFF8E1;" vertex="1" parent="1">
          <mxGeometry x="60" y="290" width="260" height="190" as="geometry" />
        </mxCell>
        <mxCell id="Y1Mvb5ua3xA_qWiBDqf6-3" value="Vertex AI &lt;br&gt;Model Training" style="sketch=0;points=[[0,0,0],[0.25,0,0],[0.5,0,0],[0.75,0,0],[1,0,0],[1,0.25,0],[1,0.5,0],[1,0.75,0],[1,1,0],[0.75,1,0],[0.5,1,0],[0.25,1,0],[0,1,0],[0,0.75,0],[0,0.5,0],[0,0.25,0]];rounded=1;absoluteArcSize=1;arcSize=2;html=1;strokeColor=none;gradientColor=none;shadow=0;dashed=0;fontSize=12;fontColor=#9E9E9E;align=left;verticalAlign=top;spacing=10;spacingTop=-4;whiteSpace=wrap;fillColor=#FFF8E1;" vertex="1" parent="1">
          <mxGeometry x="60" y="530" width="970" height="170" as="geometry" />
        </mxCell>
        <mxCell id="Y1Mvb5ua3xA_qWiBDqf6-13" value="" style="group" vertex="1" connectable="0" parent="1">
          <mxGeometry x="90" y="600" width="170" height="60" as="geometry" />
        </mxCell>
        <mxCell id="Y1Mvb5ua3xA_qWiBDqf6-5" value="" style="strokeColor=#dddddd;shadow=1;strokeWidth=1;rounded=1;absoluteArcSize=1;arcSize=2;" vertex="1" parent="Y1Mvb5ua3xA_qWiBDqf6-13">
          <mxGeometry width="170" height="60" as="geometry" />
        </mxCell>
        <mxCell id="Y1Mvb5ua3xA_qWiBDqf6-11" value="&lt;font color=&quot;#000000&quot; style=&quot;border-color: var(--border-color); font-family: Helvetica; font-size: 12px; font-style: normal; font-variant-caps: normal; font-weight: 400; letter-spacing: normal; text-align: left; text-indent: 0px; text-transform: none; word-spacing: 0px; -webkit-text-stroke-width: 0px; text-decoration: none;&quot;&gt;Managed&lt;br&gt;&lt;/font&gt;Dataset&lt;br style=&quot;border-color: var(--border-color); caret-color: rgb(153, 153, 153); color: rgb(153, 153, 153); font-family: Helvetica; font-size: 12px; font-style: normal; font-variant-caps: normal; font-weight: 400; letter-spacing: normal; text-align: left; text-indent: 0px; text-transform: none; word-spacing: 0px; -webkit-text-stroke-width: 0px; text-decoration: none;&quot;&gt;&lt;span style=&quot;caret-color: rgb(153, 153, 153); color: rgb(153, 153, 153); font-family: Helvetica; font-size: 12px; font-style: normal; font-variant-caps: normal; font-weight: 400; letter-spacing: normal; text-align: left; text-indent: 0px; text-transform: none; word-spacing: 0px; -webkit-text-stroke-width: 0px; background-color: rgb(251, 251, 251); text-decoration: none; float: none; display: inline !important;&quot;&gt;Vertex AI&lt;/span&gt;" style="text;whiteSpace=wrap;html=1;" vertex="1" parent="Y1Mvb5ua3xA_qWiBDqf6-13">
          <mxGeometry x="70" y="5" width="90" height="50" as="geometry" />
        </mxCell>
        <mxCell id="Y1Mvb5ua3xA_qWiBDqf6-12" value="" style="sketch=0;html=1;verticalAlign=top;labelPosition=center;verticalLabelPosition=bottom;align=center;spacingTop=-6;fontSize=11;fontStyle=1;fontColor=#999999;shape=image;aspect=fixed;imageAspect=0;image=data:image/svg+xml,PHN2ZyB4bWxucz0iaHR0cDovL3d3dy53My5vcmcvMjAwMC9zdmciIGlkPSJzdmc1IiB2ZXJzaW9uPSIxLjEiIHZpZXdCb3g9IjAgMCAyMzkuNzA4MjUgMjc0Ljg2MzI4IiBoZWlnaHQ9IjI3NC44NjMyOG1tIiB3aWR0aD0iMjM5LjcwODI1bW0iPiYjeGE7ICAmI3hhOyAgPGRlZnMgaWQ9ImRlZnMyIi8+JiN4YTsgIDxnIHRyYW5zZm9ybT0idHJhbnNsYXRlKC02Ni42ODYzNjEsNjAuMjU5NzY2KSIgaWQ9ImxheWVyMSI+JiN4YTsgICAgPGcgc3R5bGU9Im9wYWNpdHk6MC45OSIgaWQ9InBhdGg4NjkiLz4mI3hhOyAgICA8ZyBzdHlsZT0ib3BhY2l0eTowLjk5IiBpZD0icGF0aDg2OS0yIi8+JiN4YTsgICAgPGcgc3R5bGU9Im9wYWNpdHk6MC45OSIgaWQ9InBhdGg4NjktMyIvPiYjeGE7ICAgIDxnIHN0eWxlPSJvcGFjaXR5OjAuOTkiIGlkPSJwYXRoODY5LTEiLz4mI3hhOyAgICA8ZyBzdHlsZT0ib3BhY2l0eTowLjk5IiBpZD0icGF0aDg2OS04Ii8+JiN4YTsgICAgPGcgc3R5bGU9Im9wYWNpdHk6MC45OSIgaWQ9InBhdGg4NzEiPiYjeGE7ICAgICAgPHBhdGggaWQ9InBhdGgzMzU3IiBkPSJtIDc3LjE4Njc3NSwxMTAuODgyNTIgOTQuMjM5Njk1LDY5Ljc0NTc1IiBzdHlsZT0iY29sb3I6IzAwMDAwMDtmaWxsOiMwMDgwMDA7c3Ryb2tlLXdpZHRoOjIxO3N0cm9rZS1saW5lY2FwOnJvdW5kOy1pbmtzY2FwZS1zdHJva2U6bm9uZSIvPiYjeGE7ICAgIDwvZz4mI3hhOyAgICA8ZyBzdHlsZT0ib3BhY2l0eTowLjk5IiBpZD0icGF0aDg3MyIvPiYjeGE7ICAgIDxwYXRoIGQ9Im0gMTUzLjA4MTIsMTA5LjAzNTY4IGMgMCw2LjEyMDQ3IC00Ljk2MTYyLDExLjA4MjA5IC0xMS4wODIwOSwxMS4wODIwOSAtNi4xMjA0NywwIC0xMS4wODIwOCwtNC45NjE2MiAtMTEuMDgyMDgsLTExLjA4MjA5IDAsLTYuMTIwNDYgNC45NjE2MiwtMTEuMDgyMDgyIDExLjA4MjA4LC0xMS4wODIwODcgNi4xMjA0NywtMTBlLTcgMTEuMDgyMDksNC45NjE2MTcgMTEuMDgyMDksMTEuMDgyMDg3IHogbSAwLC05Mi41MTMzODEgYyAwLDYuMTIwNDY5IC00Ljk2MTYyLDExLjA4MjA5IC0xMS4wODIwOSwxMS4wODIwODkgLTYuMTIwNDcsLTVlLTYgLTExLjA4MjA4LC00Ljk2MTYyNCAtMTEuMDgyMDgsLTExLjA4MjA4OSAwLC02LjEyMDQ2NSA0Ljk2MTYxLC0xMS4wODIwODQ2IDExLjA4MjA4LC0xMS4wODIwODk2IDYuMTIwNDcsLTZlLTcgMTEuMDgyMDksNC45NjE2MjA2IDExLjA4MjA5LDExLjA4MjA4OTYgeiBtIDAsLTMyLjkyMTY4MyBjIDAsNi4xMjA0NjkgLTQuOTYxNjIsMTEuMDgyMDkwNSAtMTEuMDgyMDksMTEuMDgyMDg5OSAtNi4xMjA0NywtNWUtNiAtMTEuMDgyMDgsLTQuOTYxNjIzOSAtMTEuMDgyMDgsLTExLjA4MjA4OTkgMCwtNi4xMjA0NjUgNC45NjE2MSwtMTEuMDgyMDg0IDExLjA4MjA4LC0xMS4wODIwODkgNi4xMjA0NywtMTBlLTcgMTEuMDgyMDksNC45NjE2MiAxMS4wODIwOSwxMS4wODIwODkgeiBNIDEwOC43NDE4MSw3Ni43MTgwMSBjIDAsNi4xMjA0NjkgLTQuOTYxNjIsMTEuMDgyMDg5IC0xMS4wODIwODksMTEuMDgyMDg5IC02LjEyMDQ2OSwwIC0xMS4wODIwODksLTQuOTYxNjIgLTExLjA4MjA4OSwtMTEuMDgyMDg5IDAsLTYuMTIwNDY5IDQuOTYxNjIsLTExLjA4MjA4OSAxMS4wODIwODksLTExLjA4MjA4OSA2LjEyMDQ2OSwwIDExLjA4MjA4OSw0Ljk2MTYyIDExLjA4MjA4OSwxMS4wODIwODkgeiBtIDAsLTMyLjY4MDYyNiBjIDAsNi4xMjA0NjkgLTQuOTYxNjIsMTEuMDgyMDg5IC0xMS4wODIwODksMTEuMDgyMDg5IC02LjEyMDQ2OSwwIC0xMS4wODIwODksLTQuOTYxNjIgLTExLjA4MjA4OSwtMTEuMDgyMDg5IDAsLTYuMTIwNDY5IDQuOTYxNjIsLTExLjA4MjA4OSAxMS4wODIwODksLTExLjA4MjA4OSA2LjEyMDQ2OSwwIDExLjA4MjA4OSw0Ljk2MTYyIDExLjA4MjA4OSwxMS4wODIwODkgeiBtIDAsLTMyLjY3ODI0MyBjIDAsNi4xMjA0NjkgLTQuOTYxNjIsMTEuMDgyMDkgLTExLjA4MjA4OSwxMS4wODIwOSAtNi4xMjA0NjksMCAtMTEuMDgyMDksLTQuOTYxNjIxIC0xMS4wODIwODksLTExLjA4MjA5IDAsLTYuMTIwNDY4OCA0Ljk2MTYyLC0xMS4wODIwODkwNyAxMS4wODIwODksLTExLjA4MjA4OTA3IDYuMTIwNDY5LDAgMTEuMDgyMDg5LDQuOTYxNjIwMjcgMTEuMDgyMDg5LDExLjA4MjA4OTA3IHogTSAxNDIsMzcuNzc5Mjk3IGMgLTUuNzk4OTksMCAtMTAuNSw0LjcwMTAxIC0xMC41LDEwLjUgdiAyOC45OTQxNCBjIDAsNS43OTg5OSA0LjcwMTAxLDEwLjUgMTAuNSwxMC41IDUuNzk4OTksMCAxMC41LC00LjcwMTAxIDEwLjUsLTEwLjUgdiAtMjguOTk0MTQgYyAwLC01Ljc5ODk5IC00LjcwMTAxLC0xMC41IC0xMC41LC0xMC41IHogbSAtOC45ZS00LDEwLjUwMDM3NyBWIDc3LjI3MzY5MSBNIDk3LjY2MDE1NiwtNjAuMjU5NzY2IGMgLTUuNzk4OTksMCAtMTAuNSw0LjcwMTAxIC0xMC41LDEwLjUgdiAyOC45OTQxNDEgYyAwLDUuNzk4OTkgNC43MDEwMSwxMC41IDEwLjUsMTAuNSA1Ljc5ODk5NCwyZS02IDEwLjUwMDAwNCwtNC43MDEwMDkgMTAuNTAwMDA0LC0xMC41IHYgLTI4Ljk5NDE0MSBjIDAsLTUuNzk4OTkxIC00LjcwMTAxLC0xMC41MDAwMDIgLTEwLjUwMDAwNCwtMTAuNSB6IG0gLTQuMzVlLTQsMTAuNDk5NzY1IHYgMjguOTk0MDE3IE0gNzUuNjM0NzY2LDEwMC40OTgwNSBjIC0yLjc1NDE5MSwwLjQxMTQ4IC01LjIzMjExOSwxLjkwMDIxIC02Ljg4ODY3Miw0LjEzODY3IC0zLjQ0ODg3NCw0LjY2MTU3IC0yLjQ2NjAyNCwxMS4yMzYzNSAyLjE5NTMxMiwxNC42ODU1NSBsIDk0LjIzODI4NCw2OS43NDYwOSAxMi43ODYwNCwtMTYuNjY2NTkgLTk0LjUzMjEzNiwtNjkuOTU4NDEgYyAtMi4yMzg2OTksLTEuNjU3MTYgLTUuMDQ0MTAxLC0yLjM1NjkzIC03Ljc5ODgyOCwtMS45NDUzMSB6IiBzdHlsZT0iY29sb3I6IzAwMDAwMDtvcGFjaXR5OjAuOTk7ZmlsbDojYjVjYmY5O2ZpbGwtb3BhY2l0eToxO3N0cm9rZS13aWR0aDoyMTtzdHJva2UtbGluZWNhcDpyb3VuZDtzdHJva2UtbGluZWpvaW46cm91bmQ7LWlua3NjYXBlLXN0cm9rZTpub25lIiBpZD0icGF0aDE4NDAtNSIvPiYjeGE7ICAgIDxwYXRoIGQ9Im0gMTk3LjM5Mjc2LDE0MS45NzM2NiBjIDAsNi4xMjA0NyAtNC45NjE2MiwxMS4wODIwOSAtMTEuMDgyMDksMTEuMDgyMDkgLTYuMTIwNDcsMCAtMTEuMDgyMDksLTQuOTYxNjIgLTExLjA4MjA5LC0xMS4wODIwOSAwLC02LjEyMDQ3IDQuOTYxNjIsLTExLjA4MjA5IDExLjA4MjA5LC0xMS4wODIwOSA2LjEyMDQ3LDAgMTEuMDgyMDksNC45NjE2MiAxMS4wODIwOSwxMS4wODIwOSB6IG0gMCwtOTIuNzI1NTg2IGMgMCw2LjEyMDQ2OSAtNC45NjE2MiwxMS4wODIwOSAtMTEuMDgyMDksMTEuMDgyMDg5IC02LjEyMDQ3LDFlLTYgLTExLjA4MjA5LC00Ljk2MTYyIC0xMS4wODIwOSwtMTEuMDgyMDg5IDAsLTYuMTIwNDcgNC45NjE2MiwtMTEuMDgyMDkxIDExLjA4MjA5LC0xMS4wODIwOSA2LjEyMDQ3LC0xZS02IDExLjA4MjA5LDQuOTYxNjIgMTEuMDgyMDksMTEuMDgyMDkgeiBtIDAsLTMyLjg1NDQ1OCBjIDAsNi4xMjA0NjkgLTQuOTYxNjIsMTEuMDgyMDkgLTExLjA4MjA5LDExLjA4MjA4OSAtNi4xMjA0NywxMGUtNyAtMTEuMDgyMDksLTQuOTYxNjIgLTExLjA4MjA5LC0xMS4wODIwODkgMCwtNi4xMjA0NjkgNC45NjE2MiwtMTEuMDgyMDkwMyAxMS4wODIwOSwtMTEuMDgyMDg5NyA2LjEyMDQ3LC02ZS03IDExLjA4MjA5LDQuOTYxNjIwNyAxMS4wODIwOSwxMS4wODIwODk3IHogbSAxMDAuMDI5MTEsODQuMDA2Nzc0IGMgLTIuNzU1MTcsLTAuNDA1MDA0IC01LjU1ODM4LDAuMzAxMDcgLTcuNzkyOTYsMS45NjI4OSBsIC05NC43NDYxLDcwLjQzNzUgMTIuNTI5MywxNi44NTM1MiA5NC43NDYwOSwtNzAuNDM3NSBjIDQuNjU0MTIsLTMuNDU5NzggNS42MjIxNSwtMTAuMDM3NDggMi4xNjIxMSwtMTQuNjkxNDEgLTEuNjYxMzYsLTIuMjM1NTMgLTQuMTQyODcsLTMuNzE5MzcgLTYuODk4NDQsLTQuMTI1IHogTSAxODYuMzEwNTUsNzAuODY3MTg3IGMgLTUuNzk4OTksMCAtMTAuNSw0LjcwMTAxIC0xMC41LDEwLjUgdiAyOC45OTQxNDMgYyAwLDUuNzk4OTkgNC43MDEwMSwxMC41IDEwLjUsMTAuNSA1Ljc5ODk5LDAgMTAuNSwtNC43MDEwMSAxMC41LC0xMC41IFYgODEuMzY3MTg3IGMgMCwtNS43OTg5OSAtNC43MDEwMSwtMTAuNSAtMTAuNSwtMTAuNSB6IG0gMS4yZS00LDEwLjUwMDgyNyB2IDI4Ljk5NDAxNiIgc3R5bGU9ImNvbG9yOiMwMDAwMDA7b3BhY2l0eTowLjk5O2ZpbGw6Izc2OWVmNTtmaWxsLW9wYWNpdHk6MTtzdHJva2Utd2lkdGg6MjE7c3Ryb2tlLWxpbmVjYXA6cm91bmQ7c3Ryb2tlLWxpbmVqb2luOnJvdW5kOy1pbmtzY2FwZS1zdHJva2U6bm9uZSIgaWQ9InBhdGgxODQwLTMiLz4mI3hhOyAgICA8cGF0aCBkPSJtIDE4Ni4zNDU3LDE3MC42ODE2NCBjIC0xMi4wNDU3LDAgLTIxLjk2MDkzLDkuOTE1MjQgLTIxLjk2MDkzLDIxLjk2MDk0IDAsMTIuMDQ1NyA5LjkxNTIzLDIxLjk2MDk0IDIxLjk2MDkzLDIxLjk2MDk0IDEyLjA0NTcsMCAyMS45NjA5NCwtOS45MTUyNCAyMS45NjA5NCwtMjEuOTYwOTQgMCwtMTIuMDQ1NyAtOS45MTUyNCwtMjEuOTYwOTQgLTIxLjk2MDk0LC0yMS45NjA5NCB6IG0gMCwxNCBjIDQuNDc5NTUsMCA3Ljk2MDk0LDMuNDgxMzkgNy45NjA5NCw3Ljk2MDk0IDAsNC40Nzk1NSAtMy40ODEzOSw3Ljk2MDk0IC03Ljk2MDk0LDcuOTYwOTQgLTQuNDc5NTQsMCAtNy45NjA5MywtMy40ODEzOSAtNy45NjA5MywtNy45NjA5NCAwLC00LjQ3OTU1IDMuNDgxMzksLTcuOTYwOTQgNy45NjA5MywtNy45NjA5NCB6IE0gMjg2LjE2MTM3LDc2Ljc5MTAwOCBBIDExLjA4MjA4OSwxMS4wODIwODkgMCAwIDEgMjc1LjA3OTI4LDg3Ljg3MzA5NyAxMS4wODIwODksMTEuMDgyMDg5IDAgMCAxIDI2My45OTcyLDc2Ljc5MTAwOCAxMS4wODIwODksMTEuMDgyMDg5IDAgMCAxIDI3NS4wNzkyOCw2NS43MDg5MTkgMTEuMDgyMDg5LDExLjA4MjA4OSAwIDAgMSAyODYuMTYxMzcsNzYuNzkxMDA4IFogbSAwLC0zMy4xNDU0MzUgYSAxMS4wODIwODksMTEuMDgyMDg5IDAgMCAxIC0xMS4wODIwOSwxMS4wODIwODkgMTEuMDgyMDg5LDExLjA4MjA4OSAwIDAgMSAtMTEuMDgyMDgsLTExLjA4MjA4OSAxMS4wODIwODksMTEuMDgyMDg5IDAgMCAxIDExLjA4MjA4LC0xMS4wODIwOSAxMS4wODIwODksMTEuMDgyMDg5IDAgMCAxIDExLjA4MjA5LDExLjA4MjA5IHogbSAwLC05Mi40NjgyMjQgYSAxMS4wODIwODksMTEuMDgyMDg5IDAgMCAxIC0xMS4wODIwOSwxMS4wODIwOSAxMS4wODIwODksMTEuMDgyMDg5IDAgMCAxIC0xMS4wODIwOCwtMTEuMDgyMDkgMTEuMDgyMDg5LDExLjA4MjA4OSAwIDAgMSAxMS4wODIwOCwtMTEuMDgyMDg5IDExLjA4MjA4OSwxMS4wODIwODkgMCAwIDEgMTEuMDgyMDksMTEuMDgyMDg5IHogbSAtNDQuMjEzNjIsMzIuNTU3NzE2IGEgMTEuMDgyMDg5LDExLjA4MjA4OSAwIDAgMSAtMTEuMDgyMDksMTEuMDgyMDg5OSAxMS4wODIwODksMTEuMDgyMDg5IDAgMCAxIC0xMS4wODIwOSwtMTEuMDgyMDg5OSAxMS4wODIwODksMTEuMDgyMDg5IDAgMCAxIDExLjA4MjA5LC0xMS4wODIwODkgMTEuMDgyMDg5LDExLjA4MjA4OSAwIDAgMSAxMS4wODIwOSwxMS4wODIwODkgeiBtIDAsOTIuNTM1NDQzIGEgMTEuMDgyMDg5LDExLjA4MjA4OSAwIDAgMSAtMTEuMDgyMDksMTEuMDgyMDg5IDExLjA4MjA4OSwxMS4wODIwODkgMCAwIDEgLTExLjA4MjA5LC0xMS4wODIwODkgMTEuMDgyMDg5LDExLjA4MjA4OSAwIDAgMSAxMS4wODIwOSwtMTEuMDgyMDkgMTEuMDgyMDg5LDExLjA4MjA4OSAwIDAgMSAxMS4wODIwOSwxMS4wODIwOSB6IG0gMCwzMi44ODIzMTIgYSAxMS4wODIwODksMTEuMDgyMDg5IDAgMCAxIC0xMS4wODIwOSwxMS4wODIwOSAxMS4wODIwODksMTEuMDgyMDg5IDAgMCAxIC0xMS4wODIwOSwtMTEuMDgyMDkgMTEuMDgyMDg5LDExLjA4MjA4OSAwIDAgMSAxMS4wODIwOSwtMTEuMDgyMDkzIDExLjA4MjA4OSwxMS4wODIwODkgMCAwIDEgMTEuMDgyMDksMTEuMDgyMDkzIHogbSAzMy4xMzIzMywtMTM2LjU4ODM2NyBhIDEwLjUsMTAuNSAwIDAgMCAtMTAuNSwxMC41IHYgMjguOTk0MTQxIGEgMTAuNSwxMC41IDAgMCAwIDEwLjUsMTAuNSAxMC41LDEwLjUgMCAwIDAgMTAuNSwtMTAuNSB2IC0yOC45OTQxNDEgYSAxMC41LDEwLjUgMCAwIDAgLTEwLjUsLTEwLjUgeiBtIC04ZS00LDEwLjUwMDc1OSBWIDEyLjA1OTIyOSBNIDIzMC44NjUyMyw1LjI0MDIzNDQgYSAxMC41LDEwLjUgMCAwIDAgLTEwLjUsMTAuNDk5OTk5NiB2IDI4Ljk5NDE0MSBhIDEwLjUsMTAuNSAwIDAgMCAxMC41LDEwLjUgMTAuNSwxMC41IDAgMCAwIDEwLjUsLTEwLjUgViAxNS43NDAyMzQgYSAxMC41LDEwLjUgMCAwIDAgLTEwLjUsLTEwLjQ5OTk5OTYgeiBtIDQuMmUtNCwxMC40OTk0MzA2IHYgMjguOTk0MDE3IiBzdHlsZT0iY29sb3I6IzAwMDAwMDtvcGFjaXR5OjAuOTk7ZmlsbDojNTk4NmYyO2ZpbGwtb3BhY2l0eToxO3N0cm9rZS1saW5lY2FwOnJvdW5kO3N0cm9rZS1saW5lam9pbjpyb3VuZDstaW5rc2NhcGUtc3Ryb2tlOm5vbmUiIGlkPSJwYXRoMTg0MC04Ii8+JiN4YTsgIDwvZz4mI3hhOzwvc3ZnPg==;" vertex="1" parent="Y1Mvb5ua3xA_qWiBDqf6-13">
          <mxGeometry x="20" y="9" width="37" height="42" as="geometry" />
        </mxCell>
        <mxCell id="Y1Mvb5ua3xA_qWiBDqf6-14" value="" style="group" vertex="1" connectable="0" parent="1">
          <mxGeometry x="330" y="600" width="170" height="60" as="geometry" />
        </mxCell>
        <mxCell id="Y1Mvb5ua3xA_qWiBDqf6-15" value="" style="strokeColor=#dddddd;shadow=1;strokeWidth=1;rounded=1;absoluteArcSize=1;arcSize=2;" vertex="1" parent="Y1Mvb5ua3xA_qWiBDqf6-14">
          <mxGeometry width="170" height="60" as="geometry" />
        </mxCell>
        <mxCell id="Y1Mvb5ua3xA_qWiBDqf6-16" value="Auto ML&lt;br style=&quot;border-color: var(--border-color); caret-color: rgb(153, 153, 153); color: rgb(153, 153, 153); font-family: Helvetica; font-size: 12px; font-style: normal; font-variant-caps: normal; font-weight: 400; letter-spacing: normal; text-align: left; text-indent: 0px; text-transform: none; word-spacing: 0px; -webkit-text-stroke-width: 0px; text-decoration: none;&quot;&gt;&lt;span style=&quot;caret-color: rgb(153, 153, 153); color: rgb(153, 153, 153); font-family: Helvetica; font-size: 12px; font-style: normal; font-variant-caps: normal; font-weight: 400; letter-spacing: normal; text-align: left; text-indent: 0px; text-transform: none; word-spacing: 0px; -webkit-text-stroke-width: 0px; background-color: rgb(251, 251, 251); text-decoration: none; float: none; display: inline !important;&quot;&gt;Vertex AI&lt;/span&gt;" style="text;whiteSpace=wrap;html=1;" vertex="1" parent="Y1Mvb5ua3xA_qWiBDqf6-14">
          <mxGeometry x="70" y="5" width="90" height="50" as="geometry" />
        </mxCell>
        <mxCell id="Y1Mvb5ua3xA_qWiBDqf6-17" value="" style="sketch=0;html=1;verticalAlign=top;labelPosition=center;verticalLabelPosition=bottom;align=center;spacingTop=-6;fontSize=11;fontStyle=1;fontColor=#999999;shape=image;aspect=fixed;imageAspect=0;image=data:image/svg+xml,PHN2ZyB4bWxucz0iaHR0cDovL3d3dy53My5vcmcvMjAwMC9zdmciIGlkPSJzdmc1IiB2ZXJzaW9uPSIxLjEiIHZpZXdCb3g9IjAgMCAyMzkuNzA4MjUgMjc0Ljg2MzI4IiBoZWlnaHQ9IjI3NC44NjMyOG1tIiB3aWR0aD0iMjM5LjcwODI1bW0iPiYjeGE7ICAmI3hhOyAgPGRlZnMgaWQ9ImRlZnMyIi8+JiN4YTsgIDxnIHRyYW5zZm9ybT0idHJhbnNsYXRlKC02Ni42ODYzNjEsNjAuMjU5NzY2KSIgaWQ9ImxheWVyMSI+JiN4YTsgICAgPGcgc3R5bGU9Im9wYWNpdHk6MC45OSIgaWQ9InBhdGg4NjkiLz4mI3hhOyAgICA8ZyBzdHlsZT0ib3BhY2l0eTowLjk5IiBpZD0icGF0aDg2OS0yIi8+JiN4YTsgICAgPGcgc3R5bGU9Im9wYWNpdHk6MC45OSIgaWQ9InBhdGg4NjktMyIvPiYjeGE7ICAgIDxnIHN0eWxlPSJvcGFjaXR5OjAuOTkiIGlkPSJwYXRoODY5LTEiLz4mI3hhOyAgICA8ZyBzdHlsZT0ib3BhY2l0eTowLjk5IiBpZD0icGF0aDg2OS04Ii8+JiN4YTsgICAgPGcgc3R5bGU9Im9wYWNpdHk6MC45OSIgaWQ9InBhdGg4NzEiPiYjeGE7ICAgICAgPHBhdGggaWQ9InBhdGgzMzU3IiBkPSJtIDc3LjE4Njc3NSwxMTAuODgyNTIgOTQuMjM5Njk1LDY5Ljc0NTc1IiBzdHlsZT0iY29sb3I6IzAwMDAwMDtmaWxsOiMwMDgwMDA7c3Ryb2tlLXdpZHRoOjIxO3N0cm9rZS1saW5lY2FwOnJvdW5kOy1pbmtzY2FwZS1zdHJva2U6bm9uZSIvPiYjeGE7ICAgIDwvZz4mI3hhOyAgICA8ZyBzdHlsZT0ib3BhY2l0eTowLjk5IiBpZD0icGF0aDg3MyIvPiYjeGE7ICAgIDxwYXRoIGQ9Im0gMTUzLjA4MTIsMTA5LjAzNTY4IGMgMCw2LjEyMDQ3IC00Ljk2MTYyLDExLjA4MjA5IC0xMS4wODIwOSwxMS4wODIwOSAtNi4xMjA0NywwIC0xMS4wODIwOCwtNC45NjE2MiAtMTEuMDgyMDgsLTExLjA4MjA5IDAsLTYuMTIwNDYgNC45NjE2MiwtMTEuMDgyMDgyIDExLjA4MjA4LC0xMS4wODIwODcgNi4xMjA0NywtMTBlLTcgMTEuMDgyMDksNC45NjE2MTcgMTEuMDgyMDksMTEuMDgyMDg3IHogbSAwLC05Mi41MTMzODEgYyAwLDYuMTIwNDY5IC00Ljk2MTYyLDExLjA4MjA5IC0xMS4wODIwOSwxMS4wODIwODkgLTYuMTIwNDcsLTVlLTYgLTExLjA4MjA4LC00Ljk2MTYyNCAtMTEuMDgyMDgsLTExLjA4MjA4OSAwLC02LjEyMDQ2NSA0Ljk2MTYxLC0xMS4wODIwODQ2IDExLjA4MjA4LC0xMS4wODIwODk2IDYuMTIwNDcsLTZlLTcgMTEuMDgyMDksNC45NjE2MjA2IDExLjA4MjA5LDExLjA4MjA4OTYgeiBtIDAsLTMyLjkyMTY4MyBjIDAsNi4xMjA0NjkgLTQuOTYxNjIsMTEuMDgyMDkwNSAtMTEuMDgyMDksMTEuMDgyMDg5OSAtNi4xMjA0NywtNWUtNiAtMTEuMDgyMDgsLTQuOTYxNjIzOSAtMTEuMDgyMDgsLTExLjA4MjA4OTkgMCwtNi4xMjA0NjUgNC45NjE2MSwtMTEuMDgyMDg0IDExLjA4MjA4LC0xMS4wODIwODkgNi4xMjA0NywtMTBlLTcgMTEuMDgyMDksNC45NjE2MiAxMS4wODIwOSwxMS4wODIwODkgeiBNIDEwOC43NDE4MSw3Ni43MTgwMSBjIDAsNi4xMjA0NjkgLTQuOTYxNjIsMTEuMDgyMDg5IC0xMS4wODIwODksMTEuMDgyMDg5IC02LjEyMDQ2OSwwIC0xMS4wODIwODksLTQuOTYxNjIgLTExLjA4MjA4OSwtMTEuMDgyMDg5IDAsLTYuMTIwNDY5IDQuOTYxNjIsLTExLjA4MjA4OSAxMS4wODIwODksLTExLjA4MjA4OSA2LjEyMDQ2OSwwIDExLjA4MjA4OSw0Ljk2MTYyIDExLjA4MjA4OSwxMS4wODIwODkgeiBtIDAsLTMyLjY4MDYyNiBjIDAsNi4xMjA0NjkgLTQuOTYxNjIsMTEuMDgyMDg5IC0xMS4wODIwODksMTEuMDgyMDg5IC02LjEyMDQ2OSwwIC0xMS4wODIwODksLTQuOTYxNjIgLTExLjA4MjA4OSwtMTEuMDgyMDg5IDAsLTYuMTIwNDY5IDQuOTYxNjIsLTExLjA4MjA4OSAxMS4wODIwODksLTExLjA4MjA4OSA2LjEyMDQ2OSwwIDExLjA4MjA4OSw0Ljk2MTYyIDExLjA4MjA4OSwxMS4wODIwODkgeiBtIDAsLTMyLjY3ODI0MyBjIDAsNi4xMjA0NjkgLTQuOTYxNjIsMTEuMDgyMDkgLTExLjA4MjA4OSwxMS4wODIwOSAtNi4xMjA0NjksMCAtMTEuMDgyMDksLTQuOTYxNjIxIC0xMS4wODIwODksLTExLjA4MjA5IDAsLTYuMTIwNDY4OCA0Ljk2MTYyLC0xMS4wODIwODkwNyAxMS4wODIwODksLTExLjA4MjA4OTA3IDYuMTIwNDY5LDAgMTEuMDgyMDg5LDQuOTYxNjIwMjcgMTEuMDgyMDg5LDExLjA4MjA4OTA3IHogTSAxNDIsMzcuNzc5Mjk3IGMgLTUuNzk4OTksMCAtMTAuNSw0LjcwMTAxIC0xMC41LDEwLjUgdiAyOC45OTQxNCBjIDAsNS43OTg5OSA0LjcwMTAxLDEwLjUgMTAuNSwxMC41IDUuNzk4OTksMCAxMC41LC00LjcwMTAxIDEwLjUsLTEwLjUgdiAtMjguOTk0MTQgYyAwLC01Ljc5ODk5IC00LjcwMTAxLC0xMC41IC0xMC41LC0xMC41IHogbSAtOC45ZS00LDEwLjUwMDM3NyBWIDc3LjI3MzY5MSBNIDk3LjY2MDE1NiwtNjAuMjU5NzY2IGMgLTUuNzk4OTksMCAtMTAuNSw0LjcwMTAxIC0xMC41LDEwLjUgdiAyOC45OTQxNDEgYyAwLDUuNzk4OTkgNC43MDEwMSwxMC41IDEwLjUsMTAuNSA1Ljc5ODk5NCwyZS02IDEwLjUwMDAwNCwtNC43MDEwMDkgMTAuNTAwMDA0LC0xMC41IHYgLTI4Ljk5NDE0MSBjIDAsLTUuNzk4OTkxIC00LjcwMTAxLC0xMC41MDAwMDIgLTEwLjUwMDAwNCwtMTAuNSB6IG0gLTQuMzVlLTQsMTAuNDk5NzY1IHYgMjguOTk0MDE3IE0gNzUuNjM0NzY2LDEwMC40OTgwNSBjIC0yLjc1NDE5MSwwLjQxMTQ4IC01LjIzMjExOSwxLjkwMDIxIC02Ljg4ODY3Miw0LjEzODY3IC0zLjQ0ODg3NCw0LjY2MTU3IC0yLjQ2NjAyNCwxMS4yMzYzNSAyLjE5NTMxMiwxNC42ODU1NSBsIDk0LjIzODI4NCw2OS43NDYwOSAxMi43ODYwNCwtMTYuNjY2NTkgLTk0LjUzMjEzNiwtNjkuOTU4NDEgYyAtMi4yMzg2OTksLTEuNjU3MTYgLTUuMDQ0MTAxLC0yLjM1NjkzIC03Ljc5ODgyOCwtMS45NDUzMSB6IiBzdHlsZT0iY29sb3I6IzAwMDAwMDtvcGFjaXR5OjAuOTk7ZmlsbDojYjVjYmY5O2ZpbGwtb3BhY2l0eToxO3N0cm9rZS13aWR0aDoyMTtzdHJva2UtbGluZWNhcDpyb3VuZDtzdHJva2UtbGluZWpvaW46cm91bmQ7LWlua3NjYXBlLXN0cm9rZTpub25lIiBpZD0icGF0aDE4NDAtNSIvPiYjeGE7ICAgIDxwYXRoIGQ9Im0gMTk3LjM5Mjc2LDE0MS45NzM2NiBjIDAsNi4xMjA0NyAtNC45NjE2MiwxMS4wODIwOSAtMTEuMDgyMDksMTEuMDgyMDkgLTYuMTIwNDcsMCAtMTEuMDgyMDksLTQuOTYxNjIgLTExLjA4MjA5LC0xMS4wODIwOSAwLC02LjEyMDQ3IDQuOTYxNjIsLTExLjA4MjA5IDExLjA4MjA5LC0xMS4wODIwOSA2LjEyMDQ3LDAgMTEuMDgyMDksNC45NjE2MiAxMS4wODIwOSwxMS4wODIwOSB6IG0gMCwtOTIuNzI1NTg2IGMgMCw2LjEyMDQ2OSAtNC45NjE2MiwxMS4wODIwOSAtMTEuMDgyMDksMTEuMDgyMDg5IC02LjEyMDQ3LDFlLTYgLTExLjA4MjA5LC00Ljk2MTYyIC0xMS4wODIwOSwtMTEuMDgyMDg5IDAsLTYuMTIwNDcgNC45NjE2MiwtMTEuMDgyMDkxIDExLjA4MjA5LC0xMS4wODIwOSA2LjEyMDQ3LC0xZS02IDExLjA4MjA5LDQuOTYxNjIgMTEuMDgyMDksMTEuMDgyMDkgeiBtIDAsLTMyLjg1NDQ1OCBjIDAsNi4xMjA0NjkgLTQuOTYxNjIsMTEuMDgyMDkgLTExLjA4MjA5LDExLjA4MjA4OSAtNi4xMjA0NywxMGUtNyAtMTEuMDgyMDksLTQuOTYxNjIgLTExLjA4MjA5LC0xMS4wODIwODkgMCwtNi4xMjA0NjkgNC45NjE2MiwtMTEuMDgyMDkwMyAxMS4wODIwOSwtMTEuMDgyMDg5NyA2LjEyMDQ3LC02ZS03IDExLjA4MjA5LDQuOTYxNjIwNyAxMS4wODIwOSwxMS4wODIwODk3IHogbSAxMDAuMDI5MTEsODQuMDA2Nzc0IGMgLTIuNzU1MTcsLTAuNDA1MDA0IC01LjU1ODM4LDAuMzAxMDcgLTcuNzkyOTYsMS45NjI4OSBsIC05NC43NDYxLDcwLjQzNzUgMTIuNTI5MywxNi44NTM1MiA5NC43NDYwOSwtNzAuNDM3NSBjIDQuNjU0MTIsLTMuNDU5NzggNS42MjIxNSwtMTAuMDM3NDggMi4xNjIxMSwtMTQuNjkxNDEgLTEuNjYxMzYsLTIuMjM1NTMgLTQuMTQyODcsLTMuNzE5MzcgLTYuODk4NDQsLTQuMTI1IHogTSAxODYuMzEwNTUsNzAuODY3MTg3IGMgLTUuNzk4OTksMCAtMTAuNSw0LjcwMTAxIC0xMC41LDEwLjUgdiAyOC45OTQxNDMgYyAwLDUuNzk4OTkgNC43MDEwMSwxMC41IDEwLjUsMTAuNSA1Ljc5ODk5LDAgMTAuNSwtNC43MDEwMSAxMC41LC0xMC41IFYgODEuMzY3MTg3IGMgMCwtNS43OTg5OSAtNC43MDEwMSwtMTAuNSAtMTAuNSwtMTAuNSB6IG0gMS4yZS00LDEwLjUwMDgyNyB2IDI4Ljk5NDAxNiIgc3R5bGU9ImNvbG9yOiMwMDAwMDA7b3BhY2l0eTowLjk5O2ZpbGw6Izc2OWVmNTtmaWxsLW9wYWNpdHk6MTtzdHJva2Utd2lkdGg6MjE7c3Ryb2tlLWxpbmVjYXA6cm91bmQ7c3Ryb2tlLWxpbmVqb2luOnJvdW5kOy1pbmtzY2FwZS1zdHJva2U6bm9uZSIgaWQ9InBhdGgxODQwLTMiLz4mI3hhOyAgICA8cGF0aCBkPSJtIDE4Ni4zNDU3LDE3MC42ODE2NCBjIC0xMi4wNDU3LDAgLTIxLjk2MDkzLDkuOTE1MjQgLTIxLjk2MDkzLDIxLjk2MDk0IDAsMTIuMDQ1NyA5LjkxNTIzLDIxLjk2MDk0IDIxLjk2MDkzLDIxLjk2MDk0IDEyLjA0NTcsMCAyMS45NjA5NCwtOS45MTUyNCAyMS45NjA5NCwtMjEuOTYwOTQgMCwtMTIuMDQ1NyAtOS45MTUyNCwtMjEuOTYwOTQgLTIxLjk2MDk0LC0yMS45NjA5NCB6IG0gMCwxNCBjIDQuNDc5NTUsMCA3Ljk2MDk0LDMuNDgxMzkgNy45NjA5NCw3Ljk2MDk0IDAsNC40Nzk1NSAtMy40ODEzOSw3Ljk2MDk0IC03Ljk2MDk0LDcuOTYwOTQgLTQuNDc5NTQsMCAtNy45NjA5MywtMy40ODEzOSAtNy45NjA5MywtNy45NjA5NCAwLC00LjQ3OTU1IDMuNDgxMzksLTcuOTYwOTQgNy45NjA5MywtNy45NjA5NCB6IE0gMjg2LjE2MTM3LDc2Ljc5MTAwOCBBIDExLjA4MjA4OSwxMS4wODIwODkgMCAwIDEgMjc1LjA3OTI4LDg3Ljg3MzA5NyAxMS4wODIwODksMTEuMDgyMDg5IDAgMCAxIDI2My45OTcyLDc2Ljc5MTAwOCAxMS4wODIwODksMTEuMDgyMDg5IDAgMCAxIDI3NS4wNzkyOCw2NS43MDg5MTkgMTEuMDgyMDg5LDExLjA4MjA4OSAwIDAgMSAyODYuMTYxMzcsNzYuNzkxMDA4IFogbSAwLC0zMy4xNDU0MzUgYSAxMS4wODIwODksMTEuMDgyMDg5IDAgMCAxIC0xMS4wODIwOSwxMS4wODIwODkgMTEuMDgyMDg5LDExLjA4MjA4OSAwIDAgMSAtMTEuMDgyMDgsLTExLjA4MjA4OSAxMS4wODIwODksMTEuMDgyMDg5IDAgMCAxIDExLjA4MjA4LC0xMS4wODIwOSAxMS4wODIwODksMTEuMDgyMDg5IDAgMCAxIDExLjA4MjA5LDExLjA4MjA5IHogbSAwLC05Mi40NjgyMjQgYSAxMS4wODIwODksMTEuMDgyMDg5IDAgMCAxIC0xMS4wODIwOSwxMS4wODIwOSAxMS4wODIwODksMTEuMDgyMDg5IDAgMCAxIC0xMS4wODIwOCwtMTEuMDgyMDkgMTEuMDgyMDg5LDExLjA4MjA4OSAwIDAgMSAxMS4wODIwOCwtMTEuMDgyMDg5IDExLjA4MjA4OSwxMS4wODIwODkgMCAwIDEgMTEuMDgyMDksMTEuMDgyMDg5IHogbSAtNDQuMjEzNjIsMzIuNTU3NzE2IGEgMTEuMDgyMDg5LDExLjA4MjA4OSAwIDAgMSAtMTEuMDgyMDksMTEuMDgyMDg5OSAxMS4wODIwODksMTEuMDgyMDg5IDAgMCAxIC0xMS4wODIwOSwtMTEuMDgyMDg5OSAxMS4wODIwODksMTEuMDgyMDg5IDAgMCAxIDExLjA4MjA5LC0xMS4wODIwODkgMTEuMDgyMDg5LDExLjA4MjA4OSAwIDAgMSAxMS4wODIwOSwxMS4wODIwODkgeiBtIDAsOTIuNTM1NDQzIGEgMTEuMDgyMDg5LDExLjA4MjA4OSAwIDAgMSAtMTEuMDgyMDksMTEuMDgyMDg5IDExLjA4MjA4OSwxMS4wODIwODkgMCAwIDEgLTExLjA4MjA5LC0xMS4wODIwODkgMTEuMDgyMDg5LDExLjA4MjA4OSAwIDAgMSAxMS4wODIwOSwtMTEuMDgyMDkgMTEuMDgyMDg5LDExLjA4MjA4OSAwIDAgMSAxMS4wODIwOSwxMS4wODIwOSB6IG0gMCwzMi44ODIzMTIgYSAxMS4wODIwODksMTEuMDgyMDg5IDAgMCAxIC0xMS4wODIwOSwxMS4wODIwOSAxMS4wODIwODksMTEuMDgyMDg5IDAgMCAxIC0xMS4wODIwOSwtMTEuMDgyMDkgMTEuMDgyMDg5LDExLjA4MjA4OSAwIDAgMSAxMS4wODIwOSwtMTEuMDgyMDkzIDExLjA4MjA4OSwxMS4wODIwODkgMCAwIDEgMTEuMDgyMDksMTEuMDgyMDkzIHogbSAzMy4xMzIzMywtMTM2LjU4ODM2NyBhIDEwLjUsMTAuNSAwIDAgMCAtMTAuNSwxMC41IHYgMjguOTk0MTQxIGEgMTAuNSwxMC41IDAgMCAwIDEwLjUsMTAuNSAxMC41LDEwLjUgMCAwIDAgMTAuNSwtMTAuNSB2IC0yOC45OTQxNDEgYSAxMC41LDEwLjUgMCAwIDAgLTEwLjUsLTEwLjUgeiBtIC04ZS00LDEwLjUwMDc1OSBWIDEyLjA1OTIyOSBNIDIzMC44NjUyMyw1LjI0MDIzNDQgYSAxMC41LDEwLjUgMCAwIDAgLTEwLjUsMTAuNDk5OTk5NiB2IDI4Ljk5NDE0MSBhIDEwLjUsMTAuNSAwIDAgMCAxMC41LDEwLjUgMTAuNSwxMC41IDAgMCAwIDEwLjUsLTEwLjUgViAxNS43NDAyMzQgYSAxMC41LDEwLjUgMCAwIDAgLTEwLjUsLTEwLjQ5OTk5OTYgeiBtIDQuMmUtNCwxMC40OTk0MzA2IHYgMjguOTk0MDE3IiBzdHlsZT0iY29sb3I6IzAwMDAwMDtvcGFjaXR5OjAuOTk7ZmlsbDojNTk4NmYyO2ZpbGwtb3BhY2l0eToxO3N0cm9rZS1saW5lY2FwOnJvdW5kO3N0cm9rZS1saW5lam9pbjpyb3VuZDstaW5rc2NhcGUtc3Ryb2tlOm5vbmUiIGlkPSJwYXRoMTg0MC04Ii8+JiN4YTsgIDwvZz4mI3hhOzwvc3ZnPg==;" vertex="1" parent="Y1Mvb5ua3xA_qWiBDqf6-14">
          <mxGeometry x="20" y="9" width="37" height="42" as="geometry" />
        </mxCell>
        <mxCell id="Y1Mvb5ua3xA_qWiBDqf6-20" value="" style="group" vertex="1" connectable="0" parent="1">
          <mxGeometry x="570" y="600" width="170" height="60" as="geometry" />
        </mxCell>
        <mxCell id="Y1Mvb5ua3xA_qWiBDqf6-21" value="" style="strokeColor=#dddddd;shadow=1;strokeWidth=1;rounded=1;absoluteArcSize=1;arcSize=2;" vertex="1" parent="Y1Mvb5ua3xA_qWiBDqf6-20">
          <mxGeometry width="170" height="60" as="geometry" />
        </mxCell>
        <mxCell id="Y1Mvb5ua3xA_qWiBDqf6-22" value="&lt;font color=&quot;#000000&quot; style=&quot;border-color: var(--border-color); font-family: Helvetica; font-size: 12px; font-style: normal; font-variant-caps: normal; font-weight: 400; letter-spacing: normal; text-align: left; text-indent: 0px; text-transform: none; word-spacing: 0px; -webkit-text-stroke-width: 0px; text-decoration: none;&quot;&gt;Model&lt;br&gt;&lt;/font&gt;Registry&lt;br style=&quot;border-color: var(--border-color); caret-color: rgb(153, 153, 153); color: rgb(153, 153, 153); font-family: Helvetica; font-size: 12px; font-style: normal; font-variant-caps: normal; font-weight: 400; letter-spacing: normal; text-align: left; text-indent: 0px; text-transform: none; word-spacing: 0px; -webkit-text-stroke-width: 0px; text-decoration: none;&quot;&gt;&lt;span style=&quot;caret-color: rgb(153, 153, 153); color: rgb(153, 153, 153); font-family: Helvetica; font-size: 12px; font-style: normal; font-variant-caps: normal; font-weight: 400; letter-spacing: normal; text-align: left; text-indent: 0px; text-transform: none; word-spacing: 0px; -webkit-text-stroke-width: 0px; background-color: rgb(251, 251, 251); text-decoration: none; float: none; display: inline !important;&quot;&gt;Vertex AI&lt;/span&gt;" style="text;whiteSpace=wrap;html=1;" vertex="1" parent="Y1Mvb5ua3xA_qWiBDqf6-20">
          <mxGeometry x="70" y="5" width="90" height="50" as="geometry" />
        </mxCell>
        <mxCell id="Y1Mvb5ua3xA_qWiBDqf6-23" value="" style="sketch=0;html=1;verticalAlign=top;labelPosition=center;verticalLabelPosition=bottom;align=center;spacingTop=-6;fontSize=11;fontStyle=1;fontColor=#999999;shape=image;aspect=fixed;imageAspect=0;image=data:image/svg+xml,PHN2ZyB4bWxucz0iaHR0cDovL3d3dy53My5vcmcvMjAwMC9zdmciIGlkPSJzdmc1IiB2ZXJzaW9uPSIxLjEiIHZpZXdCb3g9IjAgMCAyMzkuNzA4MjUgMjc0Ljg2MzI4IiBoZWlnaHQ9IjI3NC44NjMyOG1tIiB3aWR0aD0iMjM5LjcwODI1bW0iPiYjeGE7ICAmI3hhOyAgPGRlZnMgaWQ9ImRlZnMyIi8+JiN4YTsgIDxnIHRyYW5zZm9ybT0idHJhbnNsYXRlKC02Ni42ODYzNjEsNjAuMjU5NzY2KSIgaWQ9ImxheWVyMSI+JiN4YTsgICAgPGcgc3R5bGU9Im9wYWNpdHk6MC45OSIgaWQ9InBhdGg4NjkiLz4mI3hhOyAgICA8ZyBzdHlsZT0ib3BhY2l0eTowLjk5IiBpZD0icGF0aDg2OS0yIi8+JiN4YTsgICAgPGcgc3R5bGU9Im9wYWNpdHk6MC45OSIgaWQ9InBhdGg4NjktMyIvPiYjeGE7ICAgIDxnIHN0eWxlPSJvcGFjaXR5OjAuOTkiIGlkPSJwYXRoODY5LTEiLz4mI3hhOyAgICA8ZyBzdHlsZT0ib3BhY2l0eTowLjk5IiBpZD0icGF0aDg2OS04Ii8+JiN4YTsgICAgPGcgc3R5bGU9Im9wYWNpdHk6MC45OSIgaWQ9InBhdGg4NzEiPiYjeGE7ICAgICAgPHBhdGggaWQ9InBhdGgzMzU3IiBkPSJtIDc3LjE4Njc3NSwxMTAuODgyNTIgOTQuMjM5Njk1LDY5Ljc0NTc1IiBzdHlsZT0iY29sb3I6IzAwMDAwMDtmaWxsOiMwMDgwMDA7c3Ryb2tlLXdpZHRoOjIxO3N0cm9rZS1saW5lY2FwOnJvdW5kOy1pbmtzY2FwZS1zdHJva2U6bm9uZSIvPiYjeGE7ICAgIDwvZz4mI3hhOyAgICA8ZyBzdHlsZT0ib3BhY2l0eTowLjk5IiBpZD0icGF0aDg3MyIvPiYjeGE7ICAgIDxwYXRoIGQ9Im0gMTUzLjA4MTIsMTA5LjAzNTY4IGMgMCw2LjEyMDQ3IC00Ljk2MTYyLDExLjA4MjA5IC0xMS4wODIwOSwxMS4wODIwOSAtNi4xMjA0NywwIC0xMS4wODIwOCwtNC45NjE2MiAtMTEuMDgyMDgsLTExLjA4MjA5IDAsLTYuMTIwNDYgNC45NjE2MiwtMTEuMDgyMDgyIDExLjA4MjA4LC0xMS4wODIwODcgNi4xMjA0NywtMTBlLTcgMTEuMDgyMDksNC45NjE2MTcgMTEuMDgyMDksMTEuMDgyMDg3IHogbSAwLC05Mi41MTMzODEgYyAwLDYuMTIwNDY5IC00Ljk2MTYyLDExLjA4MjA5IC0xMS4wODIwOSwxMS4wODIwODkgLTYuMTIwNDcsLTVlLTYgLTExLjA4MjA4LC00Ljk2MTYyNCAtMTEuMDgyMDgsLTExLjA4MjA4OSAwLC02LjEyMDQ2NSA0Ljk2MTYxLC0xMS4wODIwODQ2IDExLjA4MjA4LC0xMS4wODIwODk2IDYuMTIwNDcsLTZlLTcgMTEuMDgyMDksNC45NjE2MjA2IDExLjA4MjA5LDExLjA4MjA4OTYgeiBtIDAsLTMyLjkyMTY4MyBjIDAsNi4xMjA0NjkgLTQuOTYxNjIsMTEuMDgyMDkwNSAtMTEuMDgyMDksMTEuMDgyMDg5OSAtNi4xMjA0NywtNWUtNiAtMTEuMDgyMDgsLTQuOTYxNjIzOSAtMTEuMDgyMDgsLTExLjA4MjA4OTkgMCwtNi4xMjA0NjUgNC45NjE2MSwtMTEuMDgyMDg0IDExLjA4MjA4LC0xMS4wODIwODkgNi4xMjA0NywtMTBlLTcgMTEuMDgyMDksNC45NjE2MiAxMS4wODIwOSwxMS4wODIwODkgeiBNIDEwOC43NDE4MSw3Ni43MTgwMSBjIDAsNi4xMjA0NjkgLTQuOTYxNjIsMTEuMDgyMDg5IC0xMS4wODIwODksMTEuMDgyMDg5IC02LjEyMDQ2OSwwIC0xMS4wODIwODksLTQuOTYxNjIgLTExLjA4MjA4OSwtMTEuMDgyMDg5IDAsLTYuMTIwNDY5IDQuOTYxNjIsLTExLjA4MjA4OSAxMS4wODIwODksLTExLjA4MjA4OSA2LjEyMDQ2OSwwIDExLjA4MjA4OSw0Ljk2MTYyIDExLjA4MjA4OSwxMS4wODIwODkgeiBtIDAsLTMyLjY4MDYyNiBjIDAsNi4xMjA0NjkgLTQuOTYxNjIsMTEuMDgyMDg5IC0xMS4wODIwODksMTEuMDgyMDg5IC02LjEyMDQ2OSwwIC0xMS4wODIwODksLTQuOTYxNjIgLTExLjA4MjA4OSwtMTEuMDgyMDg5IDAsLTYuMTIwNDY5IDQuOTYxNjIsLTExLjA4MjA4OSAxMS4wODIwODksLTExLjA4MjA4OSA2LjEyMDQ2OSwwIDExLjA4MjA4OSw0Ljk2MTYyIDExLjA4MjA4OSwxMS4wODIwODkgeiBtIDAsLTMyLjY3ODI0MyBjIDAsNi4xMjA0NjkgLTQuOTYxNjIsMTEuMDgyMDkgLTExLjA4MjA4OSwxMS4wODIwOSAtNi4xMjA0NjksMCAtMTEuMDgyMDksLTQuOTYxNjIxIC0xMS4wODIwODksLTExLjA4MjA5IDAsLTYuMTIwNDY4OCA0Ljk2MTYyLC0xMS4wODIwODkwNyAxMS4wODIwODksLTExLjA4MjA4OTA3IDYuMTIwNDY5LDAgMTEuMDgyMDg5LDQuOTYxNjIwMjcgMTEuMDgyMDg5LDExLjA4MjA4OTA3IHogTSAxNDIsMzcuNzc5Mjk3IGMgLTUuNzk4OTksMCAtMTAuNSw0LjcwMTAxIC0xMC41LDEwLjUgdiAyOC45OTQxNCBjIDAsNS43OTg5OSA0LjcwMTAxLDEwLjUgMTAuNSwxMC41IDUuNzk4OTksMCAxMC41LC00LjcwMTAxIDEwLjUsLTEwLjUgdiAtMjguOTk0MTQgYyAwLC01Ljc5ODk5IC00LjcwMTAxLC0xMC41IC0xMC41LC0xMC41IHogbSAtOC45ZS00LDEwLjUwMDM3NyBWIDc3LjI3MzY5MSBNIDk3LjY2MDE1NiwtNjAuMjU5NzY2IGMgLTUuNzk4OTksMCAtMTAuNSw0LjcwMTAxIC0xMC41LDEwLjUgdiAyOC45OTQxNDEgYyAwLDUuNzk4OTkgNC43MDEwMSwxMC41IDEwLjUsMTAuNSA1Ljc5ODk5NCwyZS02IDEwLjUwMDAwNCwtNC43MDEwMDkgMTAuNTAwMDA0LC0xMC41IHYgLTI4Ljk5NDE0MSBjIDAsLTUuNzk4OTkxIC00LjcwMTAxLC0xMC41MDAwMDIgLTEwLjUwMDAwNCwtMTAuNSB6IG0gLTQuMzVlLTQsMTAuNDk5NzY1IHYgMjguOTk0MDE3IE0gNzUuNjM0NzY2LDEwMC40OTgwNSBjIC0yLjc1NDE5MSwwLjQxMTQ4IC01LjIzMjExOSwxLjkwMDIxIC02Ljg4ODY3Miw0LjEzODY3IC0zLjQ0ODg3NCw0LjY2MTU3IC0yLjQ2NjAyNCwxMS4yMzYzNSAyLjE5NTMxMiwxNC42ODU1NSBsIDk0LjIzODI4NCw2OS43NDYwOSAxMi43ODYwNCwtMTYuNjY2NTkgLTk0LjUzMjEzNiwtNjkuOTU4NDEgYyAtMi4yMzg2OTksLTEuNjU3MTYgLTUuMDQ0MTAxLC0yLjM1NjkzIC03Ljc5ODgyOCwtMS45NDUzMSB6IiBzdHlsZT0iY29sb3I6IzAwMDAwMDtvcGFjaXR5OjAuOTk7ZmlsbDojYjVjYmY5O2ZpbGwtb3BhY2l0eToxO3N0cm9rZS13aWR0aDoyMTtzdHJva2UtbGluZWNhcDpyb3VuZDtzdHJva2UtbGluZWpvaW46cm91bmQ7LWlua3NjYXBlLXN0cm9rZTpub25lIiBpZD0icGF0aDE4NDAtNSIvPiYjeGE7ICAgIDxwYXRoIGQ9Im0gMTk3LjM5Mjc2LDE0MS45NzM2NiBjIDAsNi4xMjA0NyAtNC45NjE2MiwxMS4wODIwOSAtMTEuMDgyMDksMTEuMDgyMDkgLTYuMTIwNDcsMCAtMTEuMDgyMDksLTQuOTYxNjIgLTExLjA4MjA5LC0xMS4wODIwOSAwLC02LjEyMDQ3IDQuOTYxNjIsLTExLjA4MjA5IDExLjA4MjA5LC0xMS4wODIwOSA2LjEyMDQ3LDAgMTEuMDgyMDksNC45NjE2MiAxMS4wODIwOSwxMS4wODIwOSB6IG0gMCwtOTIuNzI1NTg2IGMgMCw2LjEyMDQ2OSAtNC45NjE2MiwxMS4wODIwOSAtMTEuMDgyMDksMTEuMDgyMDg5IC02LjEyMDQ3LDFlLTYgLTExLjA4MjA5LC00Ljk2MTYyIC0xMS4wODIwOSwtMTEuMDgyMDg5IDAsLTYuMTIwNDcgNC45NjE2MiwtMTEuMDgyMDkxIDExLjA4MjA5LC0xMS4wODIwOSA2LjEyMDQ3LC0xZS02IDExLjA4MjA5LDQuOTYxNjIgMTEuMDgyMDksMTEuMDgyMDkgeiBtIDAsLTMyLjg1NDQ1OCBjIDAsNi4xMjA0NjkgLTQuOTYxNjIsMTEuMDgyMDkgLTExLjA4MjA5LDExLjA4MjA4OSAtNi4xMjA0NywxMGUtNyAtMTEuMDgyMDksLTQuOTYxNjIgLTExLjA4MjA5LC0xMS4wODIwODkgMCwtNi4xMjA0NjkgNC45NjE2MiwtMTEuMDgyMDkwMyAxMS4wODIwOSwtMTEuMDgyMDg5NyA2LjEyMDQ3LC02ZS03IDExLjA4MjA5LDQuOTYxNjIwNyAxMS4wODIwOSwxMS4wODIwODk3IHogbSAxMDAuMDI5MTEsODQuMDA2Nzc0IGMgLTIuNzU1MTcsLTAuNDA1MDA0IC01LjU1ODM4LDAuMzAxMDcgLTcuNzkyOTYsMS45NjI4OSBsIC05NC43NDYxLDcwLjQzNzUgMTIuNTI5MywxNi44NTM1MiA5NC43NDYwOSwtNzAuNDM3NSBjIDQuNjU0MTIsLTMuNDU5NzggNS42MjIxNSwtMTAuMDM3NDggMi4xNjIxMSwtMTQuNjkxNDEgLTEuNjYxMzYsLTIuMjM1NTMgLTQuMTQyODcsLTMuNzE5MzcgLTYuODk4NDQsLTQuMTI1IHogTSAxODYuMzEwNTUsNzAuODY3MTg3IGMgLTUuNzk4OTksMCAtMTAuNSw0LjcwMTAxIC0xMC41LDEwLjUgdiAyOC45OTQxNDMgYyAwLDUuNzk4OTkgNC43MDEwMSwxMC41IDEwLjUsMTAuNSA1Ljc5ODk5LDAgMTAuNSwtNC43MDEwMSAxMC41LC0xMC41IFYgODEuMzY3MTg3IGMgMCwtNS43OTg5OSAtNC43MDEwMSwtMTAuNSAtMTAuNSwtMTAuNSB6IG0gMS4yZS00LDEwLjUwMDgyNyB2IDI4Ljk5NDAxNiIgc3R5bGU9ImNvbG9yOiMwMDAwMDA7b3BhY2l0eTowLjk5O2ZpbGw6Izc2OWVmNTtmaWxsLW9wYWNpdHk6MTtzdHJva2Utd2lkdGg6MjE7c3Ryb2tlLWxpbmVjYXA6cm91bmQ7c3Ryb2tlLWxpbmVqb2luOnJvdW5kOy1pbmtzY2FwZS1zdHJva2U6bm9uZSIgaWQ9InBhdGgxODQwLTMiLz4mI3hhOyAgICA8cGF0aCBkPSJtIDE4Ni4zNDU3LDE3MC42ODE2NCBjIC0xMi4wNDU3LDAgLTIxLjk2MDkzLDkuOTE1MjQgLTIxLjk2MDkzLDIxLjk2MDk0IDAsMTIuMDQ1NyA5LjkxNTIzLDIxLjk2MDk0IDIxLjk2MDkzLDIxLjk2MDk0IDEyLjA0NTcsMCAyMS45NjA5NCwtOS45MTUyNCAyMS45NjA5NCwtMjEuOTYwOTQgMCwtMTIuMDQ1NyAtOS45MTUyNCwtMjEuOTYwOTQgLTIxLjk2MDk0LC0yMS45NjA5NCB6IG0gMCwxNCBjIDQuNDc5NTUsMCA3Ljk2MDk0LDMuNDgxMzkgNy45NjA5NCw3Ljk2MDk0IDAsNC40Nzk1NSAtMy40ODEzOSw3Ljk2MDk0IC03Ljk2MDk0LDcuOTYwOTQgLTQuNDc5NTQsMCAtNy45NjA5MywtMy40ODEzOSAtNy45NjA5MywtNy45NjA5NCAwLC00LjQ3OTU1IDMuNDgxMzksLTcuOTYwOTQgNy45NjA5MywtNy45NjA5NCB6IE0gMjg2LjE2MTM3LDc2Ljc5MTAwOCBBIDExLjA4MjA4OSwxMS4wODIwODkgMCAwIDEgMjc1LjA3OTI4LDg3Ljg3MzA5NyAxMS4wODIwODksMTEuMDgyMDg5IDAgMCAxIDI2My45OTcyLDc2Ljc5MTAwOCAxMS4wODIwODksMTEuMDgyMDg5IDAgMCAxIDI3NS4wNzkyOCw2NS43MDg5MTkgMTEuMDgyMDg5LDExLjA4MjA4OSAwIDAgMSAyODYuMTYxMzcsNzYuNzkxMDA4IFogbSAwLC0zMy4xNDU0MzUgYSAxMS4wODIwODksMTEuMDgyMDg5IDAgMCAxIC0xMS4wODIwOSwxMS4wODIwODkgMTEuMDgyMDg5LDExLjA4MjA4OSAwIDAgMSAtMTEuMDgyMDgsLTExLjA4MjA4OSAxMS4wODIwODksMTEuMDgyMDg5IDAgMCAxIDExLjA4MjA4LC0xMS4wODIwOSAxMS4wODIwODksMTEuMDgyMDg5IDAgMCAxIDExLjA4MjA5LDExLjA4MjA5IHogbSAwLC05Mi40NjgyMjQgYSAxMS4wODIwODksMTEuMDgyMDg5IDAgMCAxIC0xMS4wODIwOSwxMS4wODIwOSAxMS4wODIwODksMTEuMDgyMDg5IDAgMCAxIC0xMS4wODIwOCwtMTEuMDgyMDkgMTEuMDgyMDg5LDExLjA4MjA4OSAwIDAgMSAxMS4wODIwOCwtMTEuMDgyMDg5IDExLjA4MjA4OSwxMS4wODIwODkgMCAwIDEgMTEuMDgyMDksMTEuMDgyMDg5IHogbSAtNDQuMjEzNjIsMzIuNTU3NzE2IGEgMTEuMDgyMDg5LDExLjA4MjA4OSAwIDAgMSAtMTEuMDgyMDksMTEuMDgyMDg5OSAxMS4wODIwODksMTEuMDgyMDg5IDAgMCAxIC0xMS4wODIwOSwtMTEuMDgyMDg5OSAxMS4wODIwODksMTEuMDgyMDg5IDAgMCAxIDExLjA4MjA5LC0xMS4wODIwODkgMTEuMDgyMDg5LDExLjA4MjA4OSAwIDAgMSAxMS4wODIwOSwxMS4wODIwODkgeiBtIDAsOTIuNTM1NDQzIGEgMTEuMDgyMDg5LDExLjA4MjA4OSAwIDAgMSAtMTEuMDgyMDksMTEuMDgyMDg5IDExLjA4MjA4OSwxMS4wODIwODkgMCAwIDEgLTExLjA4MjA5LC0xMS4wODIwODkgMTEuMDgyMDg5LDExLjA4MjA4OSAwIDAgMSAxMS4wODIwOSwtMTEuMDgyMDkgMTEuMDgyMDg5LDExLjA4MjA4OSAwIDAgMSAxMS4wODIwOSwxMS4wODIwOSB6IG0gMCwzMi44ODIzMTIgYSAxMS4wODIwODksMTEuMDgyMDg5IDAgMCAxIC0xMS4wODIwOSwxMS4wODIwOSAxMS4wODIwODksMTEuMDgyMDg5IDAgMCAxIC0xMS4wODIwOSwtMTEuMDgyMDkgMTEuMDgyMDg5LDExLjA4MjA4OSAwIDAgMSAxMS4wODIwOSwtMTEuMDgyMDkzIDExLjA4MjA4OSwxMS4wODIwODkgMCAwIDEgMTEuMDgyMDksMTEuMDgyMDkzIHogbSAzMy4xMzIzMywtMTM2LjU4ODM2NyBhIDEwLjUsMTAuNSAwIDAgMCAtMTAuNSwxMC41IHYgMjguOTk0MTQxIGEgMTAuNSwxMC41IDAgMCAwIDEwLjUsMTAuNSAxMC41LDEwLjUgMCAwIDAgMTAuNSwtMTAuNSB2IC0yOC45OTQxNDEgYSAxMC41LDEwLjUgMCAwIDAgLTEwLjUsLTEwLjUgeiBtIC04ZS00LDEwLjUwMDc1OSBWIDEyLjA1OTIyOSBNIDIzMC44NjUyMyw1LjI0MDIzNDQgYSAxMC41LDEwLjUgMCAwIDAgLTEwLjUsMTAuNDk5OTk5NiB2IDI4Ljk5NDE0MSBhIDEwLjUsMTAuNSAwIDAgMCAxMC41LDEwLjUgMTAuNSwxMC41IDAgMCAwIDEwLjUsLTEwLjUgViAxNS43NDAyMzQgYSAxMC41LDEwLjUgMCAwIDAgLTEwLjUsLTEwLjQ5OTk5OTYgeiBtIDQuMmUtNCwxMC40OTk0MzA2IHYgMjguOTk0MDE3IiBzdHlsZT0iY29sb3I6IzAwMDAwMDtvcGFjaXR5OjAuOTk7ZmlsbDojNTk4NmYyO2ZpbGwtb3BhY2l0eToxO3N0cm9rZS1saW5lY2FwOnJvdW5kO3N0cm9rZS1saW5lam9pbjpyb3VuZDstaW5rc2NhcGUtc3Ryb2tlOm5vbmUiIGlkPSJwYXRoMTg0MC04Ii8+JiN4YTsgIDwvZz4mI3hhOzwvc3ZnPg==;" vertex="1" parent="Y1Mvb5ua3xA_qWiBDqf6-20">
          <mxGeometry x="20" y="9" width="37" height="42" as="geometry" />
        </mxCell>
        <mxCell id="Y1Mvb5ua3xA_qWiBDqf6-25" value="" style="group" vertex="1" connectable="0" parent="1">
          <mxGeometry x="810" y="600" width="170" height="60" as="geometry" />
        </mxCell>
        <mxCell id="Y1Mvb5ua3xA_qWiBDqf6-26" value="" style="strokeColor=#dddddd;shadow=1;strokeWidth=1;rounded=1;absoluteArcSize=1;arcSize=2;" vertex="1" parent="Y1Mvb5ua3xA_qWiBDqf6-25">
          <mxGeometry width="170" height="60" as="geometry" />
        </mxCell>
        <mxCell id="Y1Mvb5ua3xA_qWiBDqf6-27" value="&lt;font color=&quot;#000000&quot; style=&quot;border-color: var(--border-color); font-family: Helvetica; font-size: 12px; font-style: normal; font-variant-caps: normal; font-weight: 400; letter-spacing: normal; text-align: left; text-indent: 0px; text-transform: none; word-spacing: 0px; -webkit-text-stroke-width: 0px; text-decoration: none;&quot;&gt;Vertex&lt;br&gt;&lt;/font&gt;Endpoint&lt;br style=&quot;border-color: var(--border-color); caret-color: rgb(153, 153, 153); color: rgb(153, 153, 153); font-family: Helvetica; font-size: 12px; font-style: normal; font-variant-caps: normal; font-weight: 400; letter-spacing: normal; text-align: left; text-indent: 0px; text-transform: none; word-spacing: 0px; -webkit-text-stroke-width: 0px; text-decoration: none;&quot;&gt;&lt;span style=&quot;caret-color: rgb(153, 153, 153); color: rgb(153, 153, 153); font-family: Helvetica; font-size: 12px; font-style: normal; font-variant-caps: normal; font-weight: 400; letter-spacing: normal; text-align: left; text-indent: 0px; text-transform: none; word-spacing: 0px; -webkit-text-stroke-width: 0px; background-color: rgb(251, 251, 251); text-decoration: none; float: none; display: inline !important;&quot;&gt;Vertex AI&lt;/span&gt;" style="text;whiteSpace=wrap;html=1;" vertex="1" parent="Y1Mvb5ua3xA_qWiBDqf6-25">
          <mxGeometry x="70" y="5" width="90" height="50" as="geometry" />
        </mxCell>
        <mxCell id="Y1Mvb5ua3xA_qWiBDqf6-28" value="" style="sketch=0;html=1;verticalAlign=top;labelPosition=center;verticalLabelPosition=bottom;align=center;spacingTop=-6;fontSize=11;fontStyle=1;fontColor=#999999;shape=image;aspect=fixed;imageAspect=0;image=data:image/svg+xml,PHN2ZyB4bWxucz0iaHR0cDovL3d3dy53My5vcmcvMjAwMC9zdmciIGlkPSJzdmc1IiB2ZXJzaW9uPSIxLjEiIHZpZXdCb3g9IjAgMCAyMzkuNzA4MjUgMjc0Ljg2MzI4IiBoZWlnaHQ9IjI3NC44NjMyOG1tIiB3aWR0aD0iMjM5LjcwODI1bW0iPiYjeGE7ICAmI3hhOyAgPGRlZnMgaWQ9ImRlZnMyIi8+JiN4YTsgIDxnIHRyYW5zZm9ybT0idHJhbnNsYXRlKC02Ni42ODYzNjEsNjAuMjU5NzY2KSIgaWQ9ImxheWVyMSI+JiN4YTsgICAgPGcgc3R5bGU9Im9wYWNpdHk6MC45OSIgaWQ9InBhdGg4NjkiLz4mI3hhOyAgICA8ZyBzdHlsZT0ib3BhY2l0eTowLjk5IiBpZD0icGF0aDg2OS0yIi8+JiN4YTsgICAgPGcgc3R5bGU9Im9wYWNpdHk6MC45OSIgaWQ9InBhdGg4NjktMyIvPiYjeGE7ICAgIDxnIHN0eWxlPSJvcGFjaXR5OjAuOTkiIGlkPSJwYXRoODY5LTEiLz4mI3hhOyAgICA8ZyBzdHlsZT0ib3BhY2l0eTowLjk5IiBpZD0icGF0aDg2OS04Ii8+JiN4YTsgICAgPGcgc3R5bGU9Im9wYWNpdHk6MC45OSIgaWQ9InBhdGg4NzEiPiYjeGE7ICAgICAgPHBhdGggaWQ9InBhdGgzMzU3IiBkPSJtIDc3LjE4Njc3NSwxMTAuODgyNTIgOTQuMjM5Njk1LDY5Ljc0NTc1IiBzdHlsZT0iY29sb3I6IzAwMDAwMDtmaWxsOiMwMDgwMDA7c3Ryb2tlLXdpZHRoOjIxO3N0cm9rZS1saW5lY2FwOnJvdW5kOy1pbmtzY2FwZS1zdHJva2U6bm9uZSIvPiYjeGE7ICAgIDwvZz4mI3hhOyAgICA8ZyBzdHlsZT0ib3BhY2l0eTowLjk5IiBpZD0icGF0aDg3MyIvPiYjeGE7ICAgIDxwYXRoIGQ9Im0gMTUzLjA4MTIsMTA5LjAzNTY4IGMgMCw2LjEyMDQ3IC00Ljk2MTYyLDExLjA4MjA5IC0xMS4wODIwOSwxMS4wODIwOSAtNi4xMjA0NywwIC0xMS4wODIwOCwtNC45NjE2MiAtMTEuMDgyMDgsLTExLjA4MjA5IDAsLTYuMTIwNDYgNC45NjE2MiwtMTEuMDgyMDgyIDExLjA4MjA4LC0xMS4wODIwODcgNi4xMjA0NywtMTBlLTcgMTEuMDgyMDksNC45NjE2MTcgMTEuMDgyMDksMTEuMDgyMDg3IHogbSAwLC05Mi41MTMzODEgYyAwLDYuMTIwNDY5IC00Ljk2MTYyLDExLjA4MjA5IC0xMS4wODIwOSwxMS4wODIwODkgLTYuMTIwNDcsLTVlLTYgLTExLjA4MjA4LC00Ljk2MTYyNCAtMTEuMDgyMDgsLTExLjA4MjA4OSAwLC02LjEyMDQ2NSA0Ljk2MTYxLC0xMS4wODIwODQ2IDExLjA4MjA4LC0xMS4wODIwODk2IDYuMTIwNDcsLTZlLTcgMTEuMDgyMDksNC45NjE2MjA2IDExLjA4MjA5LDExLjA4MjA4OTYgeiBtIDAsLTMyLjkyMTY4MyBjIDAsNi4xMjA0NjkgLTQuOTYxNjIsMTEuMDgyMDkwNSAtMTEuMDgyMDksMTEuMDgyMDg5OSAtNi4xMjA0NywtNWUtNiAtMTEuMDgyMDgsLTQuOTYxNjIzOSAtMTEuMDgyMDgsLTExLjA4MjA4OTkgMCwtNi4xMjA0NjUgNC45NjE2MSwtMTEuMDgyMDg0IDExLjA4MjA4LC0xMS4wODIwODkgNi4xMjA0NywtMTBlLTcgMTEuMDgyMDksNC45NjE2MiAxMS4wODIwOSwxMS4wODIwODkgeiBNIDEwOC43NDE4MSw3Ni43MTgwMSBjIDAsNi4xMjA0NjkgLTQuOTYxNjIsMTEuMDgyMDg5IC0xMS4wODIwODksMTEuMDgyMDg5IC02LjEyMDQ2OSwwIC0xMS4wODIwODksLTQuOTYxNjIgLTExLjA4MjA4OSwtMTEuMDgyMDg5IDAsLTYuMTIwNDY5IDQuOTYxNjIsLTExLjA4MjA4OSAxMS4wODIwODksLTExLjA4MjA4OSA2LjEyMDQ2OSwwIDExLjA4MjA4OSw0Ljk2MTYyIDExLjA4MjA4OSwxMS4wODIwODkgeiBtIDAsLTMyLjY4MDYyNiBjIDAsNi4xMjA0NjkgLTQuOTYxNjIsMTEuMDgyMDg5IC0xMS4wODIwODksMTEuMDgyMDg5IC02LjEyMDQ2OSwwIC0xMS4wODIwODksLTQuOTYxNjIgLTExLjA4MjA4OSwtMTEuMDgyMDg5IDAsLTYuMTIwNDY5IDQuOTYxNjIsLTExLjA4MjA4OSAxMS4wODIwODksLTExLjA4MjA4OSA2LjEyMDQ2OSwwIDExLjA4MjA4OSw0Ljk2MTYyIDExLjA4MjA4OSwxMS4wODIwODkgeiBtIDAsLTMyLjY3ODI0MyBjIDAsNi4xMjA0NjkgLTQuOTYxNjIsMTEuMDgyMDkgLTExLjA4MjA4OSwxMS4wODIwOSAtNi4xMjA0NjksMCAtMTEuMDgyMDksLTQuOTYxNjIxIC0xMS4wODIwODksLTExLjA4MjA5IDAsLTYuMTIwNDY4OCA0Ljk2MTYyLC0xMS4wODIwODkwNyAxMS4wODIwODksLTExLjA4MjA4OTA3IDYuMTIwNDY5LDAgMTEuMDgyMDg5LDQuOTYxNjIwMjcgMTEuMDgyMDg5LDExLjA4MjA4OTA3IHogTSAxNDIsMzcuNzc5Mjk3IGMgLTUuNzk4OTksMCAtMTAuNSw0LjcwMTAxIC0xMC41LDEwLjUgdiAyOC45OTQxNCBjIDAsNS43OTg5OSA0LjcwMTAxLDEwLjUgMTAuNSwxMC41IDUuNzk4OTksMCAxMC41LC00LjcwMTAxIDEwLjUsLTEwLjUgdiAtMjguOTk0MTQgYyAwLC01Ljc5ODk5IC00LjcwMTAxLC0xMC41IC0xMC41LC0xMC41IHogbSAtOC45ZS00LDEwLjUwMDM3NyBWIDc3LjI3MzY5MSBNIDk3LjY2MDE1NiwtNjAuMjU5NzY2IGMgLTUuNzk4OTksMCAtMTAuNSw0LjcwMTAxIC0xMC41LDEwLjUgdiAyOC45OTQxNDEgYyAwLDUuNzk4OTkgNC43MDEwMSwxMC41IDEwLjUsMTAuNSA1Ljc5ODk5NCwyZS02IDEwLjUwMDAwNCwtNC43MDEwMDkgMTAuNTAwMDA0LC0xMC41IHYgLTI4Ljk5NDE0MSBjIDAsLTUuNzk4OTkxIC00LjcwMTAxLC0xMC41MDAwMDIgLTEwLjUwMDAwNCwtMTAuNSB6IG0gLTQuMzVlLTQsMTAuNDk5NzY1IHYgMjguOTk0MDE3IE0gNzUuNjM0NzY2LDEwMC40OTgwNSBjIC0yLjc1NDE5MSwwLjQxMTQ4IC01LjIzMjExOSwxLjkwMDIxIC02Ljg4ODY3Miw0LjEzODY3IC0zLjQ0ODg3NCw0LjY2MTU3IC0yLjQ2NjAyNCwxMS4yMzYzNSAyLjE5NTMxMiwxNC42ODU1NSBsIDk0LjIzODI4NCw2OS43NDYwOSAxMi43ODYwNCwtMTYuNjY2NTkgLTk0LjUzMjEzNiwtNjkuOTU4NDEgYyAtMi4yMzg2OTksLTEuNjU3MTYgLTUuMDQ0MTAxLC0yLjM1NjkzIC03Ljc5ODgyOCwtMS45NDUzMSB6IiBzdHlsZT0iY29sb3I6IzAwMDAwMDtvcGFjaXR5OjAuOTk7ZmlsbDojYjVjYmY5O2ZpbGwtb3BhY2l0eToxO3N0cm9rZS13aWR0aDoyMTtzdHJva2UtbGluZWNhcDpyb3VuZDtzdHJva2UtbGluZWpvaW46cm91bmQ7LWlua3NjYXBlLXN0cm9rZTpub25lIiBpZD0icGF0aDE4NDAtNSIvPiYjeGE7ICAgIDxwYXRoIGQ9Im0gMTk3LjM5Mjc2LDE0MS45NzM2NiBjIDAsNi4xMjA0NyAtNC45NjE2MiwxMS4wODIwOSAtMTEuMDgyMDksMTEuMDgyMDkgLTYuMTIwNDcsMCAtMTEuMDgyMDksLTQuOTYxNjIgLTExLjA4MjA5LC0xMS4wODIwOSAwLC02LjEyMDQ3IDQuOTYxNjIsLTExLjA4MjA5IDExLjA4MjA5LC0xMS4wODIwOSA2LjEyMDQ3LDAgMTEuMDgyMDksNC45NjE2MiAxMS4wODIwOSwxMS4wODIwOSB6IG0gMCwtOTIuNzI1NTg2IGMgMCw2LjEyMDQ2OSAtNC45NjE2MiwxMS4wODIwOSAtMTEuMDgyMDksMTEuMDgyMDg5IC02LjEyMDQ3LDFlLTYgLTExLjA4MjA5LC00Ljk2MTYyIC0xMS4wODIwOSwtMTEuMDgyMDg5IDAsLTYuMTIwNDcgNC45NjE2MiwtMTEuMDgyMDkxIDExLjA4MjA5LC0xMS4wODIwOSA2LjEyMDQ3LC0xZS02IDExLjA4MjA5LDQuOTYxNjIgMTEuMDgyMDksMTEuMDgyMDkgeiBtIDAsLTMyLjg1NDQ1OCBjIDAsNi4xMjA0NjkgLTQuOTYxNjIsMTEuMDgyMDkgLTExLjA4MjA5LDExLjA4MjA4OSAtNi4xMjA0NywxMGUtNyAtMTEuMDgyMDksLTQuOTYxNjIgLTExLjA4MjA5LC0xMS4wODIwODkgMCwtNi4xMjA0NjkgNC45NjE2MiwtMTEuMDgyMDkwMyAxMS4wODIwOSwtMTEuMDgyMDg5NyA2LjEyMDQ3LC02ZS03IDExLjA4MjA5LDQuOTYxNjIwNyAxMS4wODIwOSwxMS4wODIwODk3IHogbSAxMDAuMDI5MTEsODQuMDA2Nzc0IGMgLTIuNzU1MTcsLTAuNDA1MDA0IC01LjU1ODM4LDAuMzAxMDcgLTcuNzkyOTYsMS45NjI4OSBsIC05NC43NDYxLDcwLjQzNzUgMTIuNTI5MywxNi44NTM1MiA5NC43NDYwOSwtNzAuNDM3NSBjIDQuNjU0MTIsLTMuNDU5NzggNS42MjIxNSwtMTAuMDM3NDggMi4xNjIxMSwtMTQuNjkxNDEgLTEuNjYxMzYsLTIuMjM1NTMgLTQuMTQyODcsLTMuNzE5MzcgLTYuODk4NDQsLTQuMTI1IHogTSAxODYuMzEwNTUsNzAuODY3MTg3IGMgLTUuNzk4OTksMCAtMTAuNSw0LjcwMTAxIC0xMC41LDEwLjUgdiAyOC45OTQxNDMgYyAwLDUuNzk4OTkgNC43MDEwMSwxMC41IDEwLjUsMTAuNSA1Ljc5ODk5LDAgMTAuNSwtNC43MDEwMSAxMC41LC0xMC41IFYgODEuMzY3MTg3IGMgMCwtNS43OTg5OSAtNC43MDEwMSwtMTAuNSAtMTAuNSwtMTAuNSB6IG0gMS4yZS00LDEwLjUwMDgyNyB2IDI4Ljk5NDAxNiIgc3R5bGU9ImNvbG9yOiMwMDAwMDA7b3BhY2l0eTowLjk5O2ZpbGw6Izc2OWVmNTtmaWxsLW9wYWNpdHk6MTtzdHJva2Utd2lkdGg6MjE7c3Ryb2tlLWxpbmVjYXA6cm91bmQ7c3Ryb2tlLWxpbmVqb2luOnJvdW5kOy1pbmtzY2FwZS1zdHJva2U6bm9uZSIgaWQ9InBhdGgxODQwLTMiLz4mI3hhOyAgICA8cGF0aCBkPSJtIDE4Ni4zNDU3LDE3MC42ODE2NCBjIC0xMi4wNDU3LDAgLTIxLjk2MDkzLDkuOTE1MjQgLTIxLjk2MDkzLDIxLjk2MDk0IDAsMTIuMDQ1NyA5LjkxNTIzLDIxLjk2MDk0IDIxLjk2MDkzLDIxLjk2MDk0IDEyLjA0NTcsMCAyMS45NjA5NCwtOS45MTUyNCAyMS45NjA5NCwtMjEuOTYwOTQgMCwtMTIuMDQ1NyAtOS45MTUyNCwtMjEuOTYwOTQgLTIxLjk2MDk0LC0yMS45NjA5NCB6IG0gMCwxNCBjIDQuNDc5NTUsMCA3Ljk2MDk0LDMuNDgxMzkgNy45NjA5NCw3Ljk2MDk0IDAsNC40Nzk1NSAtMy40ODEzOSw3Ljk2MDk0IC03Ljk2MDk0LDcuOTYwOTQgLTQuNDc5NTQsMCAtNy45NjA5MywtMy40ODEzOSAtNy45NjA5MywtNy45NjA5NCAwLC00LjQ3OTU1IDMuNDgxMzksLTcuOTYwOTQgNy45NjA5MywtNy45NjA5NCB6IE0gMjg2LjE2MTM3LDc2Ljc5MTAwOCBBIDExLjA4MjA4OSwxMS4wODIwODkgMCAwIDEgMjc1LjA3OTI4LDg3Ljg3MzA5NyAxMS4wODIwODksMTEuMDgyMDg5IDAgMCAxIDI2My45OTcyLDc2Ljc5MTAwOCAxMS4wODIwODksMTEuMDgyMDg5IDAgMCAxIDI3NS4wNzkyOCw2NS43MDg5MTkgMTEuMDgyMDg5LDExLjA4MjA4OSAwIDAgMSAyODYuMTYxMzcsNzYuNzkxMDA4IFogbSAwLC0zMy4xNDU0MzUgYSAxMS4wODIwODksMTEuMDgyMDg5IDAgMCAxIC0xMS4wODIwOSwxMS4wODIwODkgMTEuMDgyMDg5LDExLjA4MjA4OSAwIDAgMSAtMTEuMDgyMDgsLTExLjA4MjA4OSAxMS4wODIwODksMTEuMDgyMDg5IDAgMCAxIDExLjA4MjA4LC0xMS4wODIwOSAxMS4wODIwODksMTEuMDgyMDg5IDAgMCAxIDExLjA4MjA5LDExLjA4MjA5IHogbSAwLC05Mi40NjgyMjQgYSAxMS4wODIwODksMTEuMDgyMDg5IDAgMCAxIC0xMS4wODIwOSwxMS4wODIwOSAxMS4wODIwODksMTEuMDgyMDg5IDAgMCAxIC0xMS4wODIwOCwtMTEuMDgyMDkgMTEuMDgyMDg5LDExLjA4MjA4OSAwIDAgMSAxMS4wODIwOCwtMTEuMDgyMDg5IDExLjA4MjA4OSwxMS4wODIwODkgMCAwIDEgMTEuMDgyMDksMTEuMDgyMDg5IHogbSAtNDQuMjEzNjIsMzIuNTU3NzE2IGEgMTEuMDgyMDg5LDExLjA4MjA4OSAwIDAgMSAtMTEuMDgyMDksMTEuMDgyMDg5OSAxMS4wODIwODksMTEuMDgyMDg5IDAgMCAxIC0xMS4wODIwOSwtMTEuMDgyMDg5OSAxMS4wODIwODksMTEuMDgyMDg5IDAgMCAxIDExLjA4MjA5LC0xMS4wODIwODkgMTEuMDgyMDg5LDExLjA4MjA4OSAwIDAgMSAxMS4wODIwOSwxMS4wODIwODkgeiBtIDAsOTIuNTM1NDQzIGEgMTEuMDgyMDg5LDExLjA4MjA4OSAwIDAgMSAtMTEuMDgyMDksMTEuMDgyMDg5IDExLjA4MjA4OSwxMS4wODIwODkgMCAwIDEgLTExLjA4MjA5LC0xMS4wODIwODkgMTEuMDgyMDg5LDExLjA4MjA4OSAwIDAgMSAxMS4wODIwOSwtMTEuMDgyMDkgMTEuMDgyMDg5LDExLjA4MjA4OSAwIDAgMSAxMS4wODIwOSwxMS4wODIwOSB6IG0gMCwzMi44ODIzMTIgYSAxMS4wODIwODksMTEuMDgyMDg5IDAgMCAxIC0xMS4wODIwOSwxMS4wODIwOSAxMS4wODIwODksMTEuMDgyMDg5IDAgMCAxIC0xMS4wODIwOSwtMTEuMDgyMDkgMTEuMDgyMDg5LDExLjA4MjA4OSAwIDAgMSAxMS4wODIwOSwtMTEuMDgyMDkzIDExLjA4MjA4OSwxMS4wODIwODkgMCAwIDEgMTEuMDgyMDksMTEuMDgyMDkzIHogbSAzMy4xMzIzMywtMTM2LjU4ODM2NyBhIDEwLjUsMTAuNSAwIDAgMCAtMTAuNSwxMC41IHYgMjguOTk0MTQxIGEgMTAuNSwxMC41IDAgMCAwIDEwLjUsMTAuNSAxMC41LDEwLjUgMCAwIDAgMTAuNSwtMTAuNSB2IC0yOC45OTQxNDEgYSAxMC41LDEwLjUgMCAwIDAgLTEwLjUsLTEwLjUgeiBtIC04ZS00LDEwLjUwMDc1OSBWIDEyLjA1OTIyOSBNIDIzMC44NjUyMyw1LjI0MDIzNDQgYSAxMC41LDEwLjUgMCAwIDAgLTEwLjUsMTAuNDk5OTk5NiB2IDI4Ljk5NDE0MSBhIDEwLjUsMTAuNSAwIDAgMCAxMC41LDEwLjUgMTAuNSwxMC41IDAgMCAwIDEwLjUsLTEwLjUgViAxNS43NDAyMzQgYSAxMC41LDEwLjUgMCAwIDAgLTEwLjUsLTEwLjQ5OTk5OTYgeiBtIDQuMmUtNCwxMC40OTk0MzA2IHYgMjguOTk0MDE3IiBzdHlsZT0iY29sb3I6IzAwMDAwMDtvcGFjaXR5OjAuOTk7ZmlsbDojNTk4NmYyO2ZpbGwtb3BhY2l0eToxO3N0cm9rZS1saW5lY2FwOnJvdW5kO3N0cm9rZS1saW5lam9pbjpyb3VuZDstaW5rc2NhcGUtc3Ryb2tlOm5vbmUiIGlkPSJwYXRoMTg0MC04Ii8+JiN4YTsgIDwvZz4mI3hhOzwvc3ZnPg==;" vertex="1" parent="Y1Mvb5ua3xA_qWiBDqf6-25">
          <mxGeometry x="20" y="9" width="37" height="42" as="geometry" />
        </mxCell>
        <mxCell id="Y1Mvb5ua3xA_qWiBDqf6-30" value="" style="edgeStyle=orthogonalEdgeStyle;fontSize=12;html=1;endArrow=blockThin;endFill=1;rounded=0;strokeWidth=2;endSize=4;startSize=4;dashed=0;strokeColor=#4284F3;exitX=1;exitY=0.5;exitDx=0;exitDy=0;entryX=0;entryY=0.5;entryDx=0;entryDy=0;" edge="1" parent="1" source="Y1Mvb5ua3xA_qWiBDqf6-5" target="Y1Mvb5ua3xA_qWiBDqf6-15">
          <mxGeometry width="100" relative="1" as="geometry">
            <mxPoint x="370" y="410" as="sourcePoint" />
            <mxPoint x="470" y="410" as="targetPoint" />
          </mxGeometry>
        </mxCell>
        <mxCell id="Y1Mvb5ua3xA_qWiBDqf6-31" value="" style="edgeStyle=orthogonalEdgeStyle;fontSize=12;html=1;endArrow=blockThin;endFill=1;rounded=0;strokeWidth=2;endSize=4;startSize=4;dashed=0;strokeColor=#4284F3;exitX=1;exitY=0.5;exitDx=0;exitDy=0;entryX=0;entryY=0.5;entryDx=0;entryDy=0;" edge="1" parent="1" source="Y1Mvb5ua3xA_qWiBDqf6-15" target="Y1Mvb5ua3xA_qWiBDqf6-21">
          <mxGeometry width="100" relative="1" as="geometry">
            <mxPoint x="250" y="630" as="sourcePoint" />
            <mxPoint x="320" y="630" as="targetPoint" />
          </mxGeometry>
        </mxCell>
        <mxCell id="Y1Mvb5ua3xA_qWiBDqf6-32" value="" style="edgeStyle=orthogonalEdgeStyle;fontSize=12;html=1;endArrow=blockThin;endFill=1;rounded=0;strokeWidth=2;endSize=4;startSize=4;dashed=0;strokeColor=#4284F3;exitX=1;exitY=0.5;exitDx=0;exitDy=0;entryX=0;entryY=0.5;entryDx=0;entryDy=0;" edge="1" parent="1" source="Y1Mvb5ua3xA_qWiBDqf6-21" target="Y1Mvb5ua3xA_qWiBDqf6-26">
          <mxGeometry width="100" relative="1" as="geometry">
            <mxPoint x="490" y="630" as="sourcePoint" />
            <mxPoint x="560" y="630" as="targetPoint" />
          </mxGeometry>
        </mxCell>
        <mxCell id="Y1Mvb5ua3xA_qWiBDqf6-34" value="" style="group" vertex="1" connectable="0" parent="1">
          <mxGeometry x="480" y="340" width="170" height="60" as="geometry" />
        </mxCell>
        <mxCell id="Y1Mvb5ua3xA_qWiBDqf6-35" value="" style="strokeColor=#dddddd;shadow=1;strokeWidth=1;rounded=1;absoluteArcSize=1;arcSize=2;" vertex="1" parent="Y1Mvb5ua3xA_qWiBDqf6-34">
          <mxGeometry width="170" height="60" as="geometry" />
        </mxCell>
        <mxCell id="Y1Mvb5ua3xA_qWiBDqf6-36" value="&lt;font color=&quot;#000000&quot; style=&quot;border-color: var(--border-color); font-family: Helvetica; font-size: 12px; font-style: normal; font-variant-caps: normal; font-weight: 400; letter-spacing: normal; text-align: left; text-indent: 0px; text-transform: none; word-spacing: 0px; -webkit-text-stroke-width: 0px; text-decoration: none;&quot;&gt;Vertex&lt;br&gt;&lt;/font&gt;Pipelines&lt;br style=&quot;border-color: var(--border-color); caret-color: rgb(153, 153, 153); color: rgb(153, 153, 153); font-family: Helvetica; font-size: 12px; font-style: normal; font-variant-caps: normal; font-weight: 400; letter-spacing: normal; text-align: left; text-indent: 0px; text-transform: none; word-spacing: 0px; -webkit-text-stroke-width: 0px; text-decoration: none;&quot;&gt;&lt;span style=&quot;caret-color: rgb(153, 153, 153); color: rgb(153, 153, 153); font-family: Helvetica; font-size: 12px; font-style: normal; font-variant-caps: normal; font-weight: 400; letter-spacing: normal; text-align: left; text-indent: 0px; text-transform: none; word-spacing: 0px; -webkit-text-stroke-width: 0px; background-color: rgb(251, 251, 251); text-decoration: none; float: none; display: inline !important;&quot;&gt;Vertex AI&lt;/span&gt;" style="text;whiteSpace=wrap;html=1;" vertex="1" parent="Y1Mvb5ua3xA_qWiBDqf6-34">
          <mxGeometry x="70" y="5" width="90" height="50" as="geometry" />
        </mxCell>
        <mxCell id="Y1Mvb5ua3xA_qWiBDqf6-37" value="" style="sketch=0;html=1;verticalAlign=top;labelPosition=center;verticalLabelPosition=bottom;align=center;spacingTop=-6;fontSize=11;fontStyle=1;fontColor=#999999;shape=image;aspect=fixed;imageAspect=0;image=data:image/svg+xml,PHN2ZyB4bWxucz0iaHR0cDovL3d3dy53My5vcmcvMjAwMC9zdmciIGlkPSJzdmc1IiB2ZXJzaW9uPSIxLjEiIHZpZXdCb3g9IjAgMCAyMzkuNzA4MjUgMjc0Ljg2MzI4IiBoZWlnaHQ9IjI3NC44NjMyOG1tIiB3aWR0aD0iMjM5LjcwODI1bW0iPiYjeGE7ICAmI3hhOyAgPGRlZnMgaWQ9ImRlZnMyIi8+JiN4YTsgIDxnIHRyYW5zZm9ybT0idHJhbnNsYXRlKC02Ni42ODYzNjEsNjAuMjU5NzY2KSIgaWQ9ImxheWVyMSI+JiN4YTsgICAgPGcgc3R5bGU9Im9wYWNpdHk6MC45OSIgaWQ9InBhdGg4NjkiLz4mI3hhOyAgICA8ZyBzdHlsZT0ib3BhY2l0eTowLjk5IiBpZD0icGF0aDg2OS0yIi8+JiN4YTsgICAgPGcgc3R5bGU9Im9wYWNpdHk6MC45OSIgaWQ9InBhdGg4NjktMyIvPiYjeGE7ICAgIDxnIHN0eWxlPSJvcGFjaXR5OjAuOTkiIGlkPSJwYXRoODY5LTEiLz4mI3hhOyAgICA8ZyBzdHlsZT0ib3BhY2l0eTowLjk5IiBpZD0icGF0aDg2OS04Ii8+JiN4YTsgICAgPGcgc3R5bGU9Im9wYWNpdHk6MC45OSIgaWQ9InBhdGg4NzEiPiYjeGE7ICAgICAgPHBhdGggaWQ9InBhdGgzMzU3IiBkPSJtIDc3LjE4Njc3NSwxMTAuODgyNTIgOTQuMjM5Njk1LDY5Ljc0NTc1IiBzdHlsZT0iY29sb3I6IzAwMDAwMDtmaWxsOiMwMDgwMDA7c3Ryb2tlLXdpZHRoOjIxO3N0cm9rZS1saW5lY2FwOnJvdW5kOy1pbmtzY2FwZS1zdHJva2U6bm9uZSIvPiYjeGE7ICAgIDwvZz4mI3hhOyAgICA8ZyBzdHlsZT0ib3BhY2l0eTowLjk5IiBpZD0icGF0aDg3MyIvPiYjeGE7ICAgIDxwYXRoIGQ9Im0gMTUzLjA4MTIsMTA5LjAzNTY4IGMgMCw2LjEyMDQ3IC00Ljk2MTYyLDExLjA4MjA5IC0xMS4wODIwOSwxMS4wODIwOSAtNi4xMjA0NywwIC0xMS4wODIwOCwtNC45NjE2MiAtMTEuMDgyMDgsLTExLjA4MjA5IDAsLTYuMTIwNDYgNC45NjE2MiwtMTEuMDgyMDgyIDExLjA4MjA4LC0xMS4wODIwODcgNi4xMjA0NywtMTBlLTcgMTEuMDgyMDksNC45NjE2MTcgMTEuMDgyMDksMTEuMDgyMDg3IHogbSAwLC05Mi41MTMzODEgYyAwLDYuMTIwNDY5IC00Ljk2MTYyLDExLjA4MjA5IC0xMS4wODIwOSwxMS4wODIwODkgLTYuMTIwNDcsLTVlLTYgLTExLjA4MjA4LC00Ljk2MTYyNCAtMTEuMDgyMDgsLTExLjA4MjA4OSAwLC02LjEyMDQ2NSA0Ljk2MTYxLC0xMS4wODIwODQ2IDExLjA4MjA4LC0xMS4wODIwODk2IDYuMTIwNDcsLTZlLTcgMTEuMDgyMDksNC45NjE2MjA2IDExLjA4MjA5LDExLjA4MjA4OTYgeiBtIDAsLTMyLjkyMTY4MyBjIDAsNi4xMjA0NjkgLTQuOTYxNjIsMTEuMDgyMDkwNSAtMTEuMDgyMDksMTEuMDgyMDg5OSAtNi4xMjA0NywtNWUtNiAtMTEuMDgyMDgsLTQuOTYxNjIzOSAtMTEuMDgyMDgsLTExLjA4MjA4OTkgMCwtNi4xMjA0NjUgNC45NjE2MSwtMTEuMDgyMDg0IDExLjA4MjA4LC0xMS4wODIwODkgNi4xMjA0NywtMTBlLTcgMTEuMDgyMDksNC45NjE2MiAxMS4wODIwOSwxMS4wODIwODkgeiBNIDEwOC43NDE4MSw3Ni43MTgwMSBjIDAsNi4xMjA0NjkgLTQuOTYxNjIsMTEuMDgyMDg5IC0xMS4wODIwODksMTEuMDgyMDg5IC02LjEyMDQ2OSwwIC0xMS4wODIwODksLTQuOTYxNjIgLTExLjA4MjA4OSwtMTEuMDgyMDg5IDAsLTYuMTIwNDY5IDQuOTYxNjIsLTExLjA4MjA4OSAxMS4wODIwODksLTExLjA4MjA4OSA2LjEyMDQ2OSwwIDExLjA4MjA4OSw0Ljk2MTYyIDExLjA4MjA4OSwxMS4wODIwODkgeiBtIDAsLTMyLjY4MDYyNiBjIDAsNi4xMjA0NjkgLTQuOTYxNjIsMTEuMDgyMDg5IC0xMS4wODIwODksMTEuMDgyMDg5IC02LjEyMDQ2OSwwIC0xMS4wODIwODksLTQuOTYxNjIgLTExLjA4MjA4OSwtMTEuMDgyMDg5IDAsLTYuMTIwNDY5IDQuOTYxNjIsLTExLjA4MjA4OSAxMS4wODIwODksLTExLjA4MjA4OSA2LjEyMDQ2OSwwIDExLjA4MjA4OSw0Ljk2MTYyIDExLjA4MjA4OSwxMS4wODIwODkgeiBtIDAsLTMyLjY3ODI0MyBjIDAsNi4xMjA0NjkgLTQuOTYxNjIsMTEuMDgyMDkgLTExLjA4MjA4OSwxMS4wODIwOSAtNi4xMjA0NjksMCAtMTEuMDgyMDksLTQuOTYxNjIxIC0xMS4wODIwODksLTExLjA4MjA5IDAsLTYuMTIwNDY4OCA0Ljk2MTYyLC0xMS4wODIwODkwNyAxMS4wODIwODksLTExLjA4MjA4OTA3IDYuMTIwNDY5LDAgMTEuMDgyMDg5LDQuOTYxNjIwMjcgMTEuMDgyMDg5LDExLjA4MjA4OTA3IHogTSAxNDIsMzcuNzc5Mjk3IGMgLTUuNzk4OTksMCAtMTAuNSw0LjcwMTAxIC0xMC41LDEwLjUgdiAyOC45OTQxNCBjIDAsNS43OTg5OSA0LjcwMTAxLDEwLjUgMTAuNSwxMC41IDUuNzk4OTksMCAxMC41LC00LjcwMTAxIDEwLjUsLTEwLjUgdiAtMjguOTk0MTQgYyAwLC01Ljc5ODk5IC00LjcwMTAxLC0xMC41IC0xMC41LC0xMC41IHogbSAtOC45ZS00LDEwLjUwMDM3NyBWIDc3LjI3MzY5MSBNIDk3LjY2MDE1NiwtNjAuMjU5NzY2IGMgLTUuNzk4OTksMCAtMTAuNSw0LjcwMTAxIC0xMC41LDEwLjUgdiAyOC45OTQxNDEgYyAwLDUuNzk4OTkgNC43MDEwMSwxMC41IDEwLjUsMTAuNSA1Ljc5ODk5NCwyZS02IDEwLjUwMDAwNCwtNC43MDEwMDkgMTAuNTAwMDA0LC0xMC41IHYgLTI4Ljk5NDE0MSBjIDAsLTUuNzk4OTkxIC00LjcwMTAxLC0xMC41MDAwMDIgLTEwLjUwMDAwNCwtMTAuNSB6IG0gLTQuMzVlLTQsMTAuNDk5NzY1IHYgMjguOTk0MDE3IE0gNzUuNjM0NzY2LDEwMC40OTgwNSBjIC0yLjc1NDE5MSwwLjQxMTQ4IC01LjIzMjExOSwxLjkwMDIxIC02Ljg4ODY3Miw0LjEzODY3IC0zLjQ0ODg3NCw0LjY2MTU3IC0yLjQ2NjAyNCwxMS4yMzYzNSAyLjE5NTMxMiwxNC42ODU1NSBsIDk0LjIzODI4NCw2OS43NDYwOSAxMi43ODYwNCwtMTYuNjY2NTkgLTk0LjUzMjEzNiwtNjkuOTU4NDEgYyAtMi4yMzg2OTksLTEuNjU3MTYgLTUuMDQ0MTAxLC0yLjM1NjkzIC03Ljc5ODgyOCwtMS45NDUzMSB6IiBzdHlsZT0iY29sb3I6IzAwMDAwMDtvcGFjaXR5OjAuOTk7ZmlsbDojYjVjYmY5O2ZpbGwtb3BhY2l0eToxO3N0cm9rZS13aWR0aDoyMTtzdHJva2UtbGluZWNhcDpyb3VuZDtzdHJva2UtbGluZWpvaW46cm91bmQ7LWlua3NjYXBlLXN0cm9rZTpub25lIiBpZD0icGF0aDE4NDAtNSIvPiYjeGE7ICAgIDxwYXRoIGQ9Im0gMTk3LjM5Mjc2LDE0MS45NzM2NiBjIDAsNi4xMjA0NyAtNC45NjE2MiwxMS4wODIwOSAtMTEuMDgyMDksMTEuMDgyMDkgLTYuMTIwNDcsMCAtMTEuMDgyMDksLTQuOTYxNjIgLTExLjA4MjA5LC0xMS4wODIwOSAwLC02LjEyMDQ3IDQuOTYxNjIsLTExLjA4MjA5IDExLjA4MjA5LC0xMS4wODIwOSA2LjEyMDQ3LDAgMTEuMDgyMDksNC45NjE2MiAxMS4wODIwOSwxMS4wODIwOSB6IG0gMCwtOTIuNzI1NTg2IGMgMCw2LjEyMDQ2OSAtNC45NjE2MiwxMS4wODIwOSAtMTEuMDgyMDksMTEuMDgyMDg5IC02LjEyMDQ3LDFlLTYgLTExLjA4MjA5LC00Ljk2MTYyIC0xMS4wODIwOSwtMTEuMDgyMDg5IDAsLTYuMTIwNDcgNC45NjE2MiwtMTEuMDgyMDkxIDExLjA4MjA5LC0xMS4wODIwOSA2LjEyMDQ3LC0xZS02IDExLjA4MjA5LDQuOTYxNjIgMTEuMDgyMDksMTEuMDgyMDkgeiBtIDAsLTMyLjg1NDQ1OCBjIDAsNi4xMjA0NjkgLTQuOTYxNjIsMTEuMDgyMDkgLTExLjA4MjA5LDExLjA4MjA4OSAtNi4xMjA0NywxMGUtNyAtMTEuMDgyMDksLTQuOTYxNjIgLTExLjA4MjA5LC0xMS4wODIwODkgMCwtNi4xMjA0NjkgNC45NjE2MiwtMTEuMDgyMDkwMyAxMS4wODIwOSwtMTEuMDgyMDg5NyA2LjEyMDQ3LC02ZS03IDExLjA4MjA5LDQuOTYxNjIwNyAxMS4wODIwOSwxMS4wODIwODk3IHogbSAxMDAuMDI5MTEsODQuMDA2Nzc0IGMgLTIuNzU1MTcsLTAuNDA1MDA0IC01LjU1ODM4LDAuMzAxMDcgLTcuNzkyOTYsMS45NjI4OSBsIC05NC43NDYxLDcwLjQzNzUgMTIuNTI5MywxNi44NTM1MiA5NC43NDYwOSwtNzAuNDM3NSBjIDQuNjU0MTIsLTMuNDU5NzggNS42MjIxNSwtMTAuMDM3NDggMi4xNjIxMSwtMTQuNjkxNDEgLTEuNjYxMzYsLTIuMjM1NTMgLTQuMTQyODcsLTMuNzE5MzcgLTYuODk4NDQsLTQuMTI1IHogTSAxODYuMzEwNTUsNzAuODY3MTg3IGMgLTUuNzk4OTksMCAtMTAuNSw0LjcwMTAxIC0xMC41LDEwLjUgdiAyOC45OTQxNDMgYyAwLDUuNzk4OTkgNC43MDEwMSwxMC41IDEwLjUsMTAuNSA1Ljc5ODk5LDAgMTAuNSwtNC43MDEwMSAxMC41LC0xMC41IFYgODEuMzY3MTg3IGMgMCwtNS43OTg5OSAtNC43MDEwMSwtMTAuNSAtMTAuNSwtMTAuNSB6IG0gMS4yZS00LDEwLjUwMDgyNyB2IDI4Ljk5NDAxNiIgc3R5bGU9ImNvbG9yOiMwMDAwMDA7b3BhY2l0eTowLjk5O2ZpbGw6Izc2OWVmNTtmaWxsLW9wYWNpdHk6MTtzdHJva2Utd2lkdGg6MjE7c3Ryb2tlLWxpbmVjYXA6cm91bmQ7c3Ryb2tlLWxpbmVqb2luOnJvdW5kOy1pbmtzY2FwZS1zdHJva2U6bm9uZSIgaWQ9InBhdGgxODQwLTMiLz4mI3hhOyAgICA8cGF0aCBkPSJtIDE4Ni4zNDU3LDE3MC42ODE2NCBjIC0xMi4wNDU3LDAgLTIxLjk2MDkzLDkuOTE1MjQgLTIxLjk2MDkzLDIxLjk2MDk0IDAsMTIuMDQ1NyA5LjkxNTIzLDIxLjk2MDk0IDIxLjk2MDkzLDIxLjk2MDk0IDEyLjA0NTcsMCAyMS45NjA5NCwtOS45MTUyNCAyMS45NjA5NCwtMjEuOTYwOTQgMCwtMTIuMDQ1NyAtOS45MTUyNCwtMjEuOTYwOTQgLTIxLjk2MDk0LC0yMS45NjA5NCB6IG0gMCwxNCBjIDQuNDc5NTUsMCA3Ljk2MDk0LDMuNDgxMzkgNy45NjA5NCw3Ljk2MDk0IDAsNC40Nzk1NSAtMy40ODEzOSw3Ljk2MDk0IC03Ljk2MDk0LDcuOTYwOTQgLTQuNDc5NTQsMCAtNy45NjA5MywtMy40ODEzOSAtNy45NjA5MywtNy45NjA5NCAwLC00LjQ3OTU1IDMuNDgxMzksLTcuOTYwOTQgNy45NjA5MywtNy45NjA5NCB6IE0gMjg2LjE2MTM3LDc2Ljc5MTAwOCBBIDExLjA4MjA4OSwxMS4wODIwODkgMCAwIDEgMjc1LjA3OTI4LDg3Ljg3MzA5NyAxMS4wODIwODksMTEuMDgyMDg5IDAgMCAxIDI2My45OTcyLDc2Ljc5MTAwOCAxMS4wODIwODksMTEuMDgyMDg5IDAgMCAxIDI3NS4wNzkyOCw2NS43MDg5MTkgMTEuMDgyMDg5LDExLjA4MjA4OSAwIDAgMSAyODYuMTYxMzcsNzYuNzkxMDA4IFogbSAwLC0zMy4xNDU0MzUgYSAxMS4wODIwODksMTEuMDgyMDg5IDAgMCAxIC0xMS4wODIwOSwxMS4wODIwODkgMTEuMDgyMDg5LDExLjA4MjA4OSAwIDAgMSAtMTEuMDgyMDgsLTExLjA4MjA4OSAxMS4wODIwODksMTEuMDgyMDg5IDAgMCAxIDExLjA4MjA4LC0xMS4wODIwOSAxMS4wODIwODksMTEuMDgyMDg5IDAgMCAxIDExLjA4MjA5LDExLjA4MjA5IHogbSAwLC05Mi40NjgyMjQgYSAxMS4wODIwODksMTEuMDgyMDg5IDAgMCAxIC0xMS4wODIwOSwxMS4wODIwOSAxMS4wODIwODksMTEuMDgyMDg5IDAgMCAxIC0xMS4wODIwOCwtMTEuMDgyMDkgMTEuMDgyMDg5LDExLjA4MjA4OSAwIDAgMSAxMS4wODIwOCwtMTEuMDgyMDg5IDExLjA4MjA4OSwxMS4wODIwODkgMCAwIDEgMTEuMDgyMDksMTEuMDgyMDg5IHogbSAtNDQuMjEzNjIsMzIuNTU3NzE2IGEgMTEuMDgyMDg5LDExLjA4MjA4OSAwIDAgMSAtMTEuMDgyMDksMTEuMDgyMDg5OSAxMS4wODIwODksMTEuMDgyMDg5IDAgMCAxIC0xMS4wODIwOSwtMTEuMDgyMDg5OSAxMS4wODIwODksMTEuMDgyMDg5IDAgMCAxIDExLjA4MjA5LC0xMS4wODIwODkgMTEuMDgyMDg5LDExLjA4MjA4OSAwIDAgMSAxMS4wODIwOSwxMS4wODIwODkgeiBtIDAsOTIuNTM1NDQzIGEgMTEuMDgyMDg5LDExLjA4MjA4OSAwIDAgMSAtMTEuMDgyMDksMTEuMDgyMDg5IDExLjA4MjA4OSwxMS4wODIwODkgMCAwIDEgLTExLjA4MjA5LC0xMS4wODIwODkgMTEuMDgyMDg5LDExLjA4MjA4OSAwIDAgMSAxMS4wODIwOSwtMTEuMDgyMDkgMTEuMDgyMDg5LDExLjA4MjA4OSAwIDAgMSAxMS4wODIwOSwxMS4wODIwOSB6IG0gMCwzMi44ODIzMTIgYSAxMS4wODIwODksMTEuMDgyMDg5IDAgMCAxIC0xMS4wODIwOSwxMS4wODIwOSAxMS4wODIwODksMTEuMDgyMDg5IDAgMCAxIC0xMS4wODIwOSwtMTEuMDgyMDkgMTEuMDgyMDg5LDExLjA4MjA4OSAwIDAgMSAxMS4wODIwOSwtMTEuMDgyMDkzIDExLjA4MjA4OSwxMS4wODIwODkgMCAwIDEgMTEuMDgyMDksMTEuMDgyMDkzIHogbSAzMy4xMzIzMywtMTM2LjU4ODM2NyBhIDEwLjUsMTAuNSAwIDAgMCAtMTAuNSwxMC41IHYgMjguOTk0MTQxIGEgMTAuNSwxMC41IDAgMCAwIDEwLjUsMTAuNSAxMC41LDEwLjUgMCAwIDAgMTAuNSwtMTAuNSB2IC0yOC45OTQxNDEgYSAxMC41LDEwLjUgMCAwIDAgLTEwLjUsLTEwLjUgeiBtIC04ZS00LDEwLjUwMDc1OSBWIDEyLjA1OTIyOSBNIDIzMC44NjUyMyw1LjI0MDIzNDQgYSAxMC41LDEwLjUgMCAwIDAgLTEwLjUsMTAuNDk5OTk5NiB2IDI4Ljk5NDE0MSBhIDEwLjUsMTAuNSAwIDAgMCAxMC41LDEwLjUgMTAuNSwxMC41IDAgMCAwIDEwLjUsLTEwLjUgViAxNS43NDAyMzQgYSAxMC41LDEwLjUgMCAwIDAgLTEwLjUsLTEwLjQ5OTk5OTYgeiBtIDQuMmUtNCwxMC40OTk0MzA2IHYgMjguOTk0MDE3IiBzdHlsZT0iY29sb3I6IzAwMDAwMDtvcGFjaXR5OjAuOTk7ZmlsbDojNTk4NmYyO2ZpbGwtb3BhY2l0eToxO3N0cm9rZS1saW5lY2FwOnJvdW5kO3N0cm9rZS1saW5lam9pbjpyb3VuZDstaW5rc2NhcGUtc3Ryb2tlOm5vbmUiIGlkPSJwYXRoMTg0MC04Ii8+JiN4YTsgIDwvZz4mI3hhOzwvc3ZnPg==;" vertex="1" parent="Y1Mvb5ua3xA_qWiBDqf6-34">
          <mxGeometry x="20" y="9" width="37" height="42" as="geometry" />
        </mxCell>
        <mxCell id="Y1Mvb5ua3xA_qWiBDqf6-39" value="" style="strokeColor=#dddddd;shadow=1;strokeWidth=1;rounded=1;absoluteArcSize=1;arcSize=2;" vertex="1" parent="1">
          <mxGeometry x="90" y="370" width="130" height="60" as="geometry" />
        </mxCell>
        <mxCell id="Y1Mvb5ua3xA_qWiBDqf6-40" value="&lt;font color=&quot;#000000&quot;&gt;&lt;span style=&quot;caret-color: rgb(0, 0, 0);&quot;&gt;Source &lt;br&gt;Data&lt;/span&gt;&lt;/font&gt;&lt;br&gt;BigQuery" style="editableCssRules=.*;html=1;fontColor=#999999;shape=image;verticalLabelPosition=middle;verticalAlign=middle;labelPosition=right;align=left;spacingLeft=20;part=1;points=[];imageAspect=0;image=data:image/svg+xml,PHN2ZyB4bWxucz0iaHR0cDovL3d3dy53My5vcmcvMjAwMC9zdmciIHhtbG5zOnY9Imh0dHBzOi8vdmVjdGEuaW8vbmFubyIgd2lkdGg9IjIwLjAwMTA0NTIyNzA1MDc4IiBoZWlnaHQ9IjIwLjAwMTA0NTIyNzA1MDc4IiBmaWxsLXJ1bGU9ImV2ZW5vZGQiIHZpZXdCb3g9IjAgMCAyMC4wMDEwNDUyMjcwNTA3OCAyMC4wMDEwNDUyMjcwNTA3OCI+JiN4YTsJPHN0eWxlIHR5cGU9InRleHQvY3NzIj4mI3hhOwkuc3Qwe2ZpbGw6I2FlY2JmYTt9JiN4YTsJLnN0MXtmaWxsOiM2NjlkZjY7fSYjeGE7CS5zdDJ7ZmlsbDojNDI4NWY0O30mI3hhOwk8L3N0eWxlPiYjeGE7CTxwYXRoIGNsYXNzPSJzdDAiIGQ9Ik00LjczIDguODN2Mi42M2E0LjkxIDQuOTEgMCAwIDAgMS43MSAxLjc0VjguODN6Ii8+JiN4YTsJPHBhdGggY2xhc3M9InN0MSIgZD0iTTcuODkgNi40MXY3LjUzQTcuNjIgNy42MiAwIDAgMCA5IDE0YTggOCAwIDAgMCAxIDBWNi40MXoiLz4mI3hhOwk8cGF0aCBjbGFzcz0ic3QwIiBkPSJNMTEuNjQgOS44NnYzLjI5YTUgNSAwIDAgMCAxLjctMS44MlY5Ljg2eiIvPiYjeGE7CTxwYXRoIGNsYXNzPSJzdDIiIGQ9Ik0xNS43NCAxNC4zMmwtMS40MiAxLjQyYS40Mi40MiAwIDAgMCAwIC42bDMuNTQgMy41NGEuNDIuNDIgMCAwIDAgLjU5IDBsMS40My0xLjQzYS40Mi40MiAwIDAgMCAwLS41OWwtMy41NC0zLjU0YS40Mi40MiAwIDAgMC0uNiAwIi8+JiN4YTsJPHBhdGggY2xhc3M9InN0MSIgZD0iTTkgMGE5IDkgMCAxIDAgMCAxOEE5IDkgMCAxIDAgOSAwbTAgMTUuNjlhNi42OCA2LjY4IDAgMCAxIC4wMDctMTMuMzYgNi42OCA2LjY4IDAgMCAxIDQuNzI3IDExLjQwM0E2LjY4IDYuNjggMCAwIDEgOSAxNS42OSIvPiYjeGE7PC9zdmc+;" vertex="1" parent="Y1Mvb5ua3xA_qWiBDqf6-39">
          <mxGeometry width="30" height="30" relative="1" as="geometry">
            <mxPoint x="15" y="15" as="offset" />
          </mxGeometry>
        </mxCell>
      </root>
    </mxGraphModel>
  </diagram>
</mxfile>
